<svg width="640" height="482" viewBox="0 0 640 482" fill="none" xmlns="http://www.w3.org/2000/svg">
<g clip-path="url(#clip0_966_41098)">
<rect x="432.552" y="102.149" width="57.3793" height="367.008" rx="12" fill="#FEE9D1"/>
<rect x="348.689" y="152.999" width="57.3793" height="316.158" rx="12" fill="#FEE9D1"/>
<rect x="264.828" y="220.034" width="57.3793" height="249.379" rx="12" fill="#FEE9D1"/>
<path fill-rule="evenodd" clip-rule="evenodd" d="M427.271 467.089C427.271 467.089 427.416 466.525 427.748 465.487C428.126 465.477 428.732 465.451 429.541 465.388C428.781 465.929 428.024 466.495 427.271 467.089Z" fill="#B3200E"/>
<path fill-rule="evenodd" clip-rule="evenodd" d="M421.92 468.849H383.518C372.769 468.849 363.023 462.535 358.608 452.715L284.12 286.947L326.518 258.336L425.766 453.15C426.664 454.907 427.992 456.353 429.584 457.388C428.798 460.057 428.025 462.766 427.272 465.487C427.272 465.487 427.298 465.491 427.354 465.491C427.43 465.491 427.562 465.488 427.749 465.484C427.417 466.522 427.272 467.086 427.272 467.086C428.025 466.493 428.782 465.926 429.542 465.385C430.058 465.343 430.657 465.286 431.338 465.207C429.242 467.109 426.604 468.348 423.766 468.727C423.157 468.806 422.542 468.849 421.92 468.849Z" fill="#B3200E"/>
<path fill-rule="evenodd" clip-rule="evenodd" d="M427.353 465.492C427.297 465.492 427.271 465.489 427.271 465.489C428.024 462.767 428.797 460.058 429.583 457.389C429.922 457.607 430.274 457.808 430.636 457.989C429.156 461.337 428.241 463.937 427.748 465.486C427.561 465.489 427.429 465.492 427.353 465.492ZM429.541 465.387C430.807 464.487 432.083 463.66 433.376 462.902C432.777 463.749 432.093 464.523 431.337 465.209C430.656 465.288 430.057 465.344 429.541 465.387Z" fill="#B3200E"/>
<path fill-rule="evenodd" clip-rule="evenodd" d="M427.748 465.486C428.241 463.937 429.156 461.337 430.636 457.989C432.133 458.74 433.808 459.152 435.544 459.152L434.35 461.311L434.179 461.617C433.933 462.062 433.665 462.49 433.376 462.902C432.083 463.66 430.807 464.487 429.541 465.387C428.731 465.449 428.126 465.476 427.748 465.486Z" fill="#B3200E"/>
<rect x="180.965" y="195.007" width="57.3793" height="274.151" rx="12" fill="#FEE9D1"/>
<rect x="97.1035" y="260.228" width="57.3793" height="208.929" rx="12" fill="#FEE9D1"/>
<path fill-rule="evenodd" clip-rule="evenodd" d="M336.545 278.015C329.075 272.106 318.161 273.843 312.889 281.781L203.368 446.624C194.596 459.828 179.814 467.759 163.983 467.759H148.572L136.031 431.565C136.031 431.565 237.847 275.166 264.089 251.508C264.089 251.508 290.222 227.912 315.991 245.752C322.799 250.465 327.967 257.193 331.125 264.855L336.545 278.015Z" fill="#FA541C"/>
<path fill-rule="evenodd" clip-rule="evenodd" d="M16.9126 334.223C16.9126 334.223 35.2454 311.268 70.7708 307.696C70.7708 307.696 87.6435 313.456 121.258 373.799C154.873 434.141 177.185 461.656 203.368 446.626L201.2 450.231C194.056 462.114 181.222 469.38 167.375 469.38H152.895C136.951 469.38 121.984 461.702 112.674 448.735C86.512 412.3 32.9837 339.881 16.9126 334.223Z" fill="#FA541C"/>
<path d="M429.264 460.213C430.162 461.969 433.718 458.698 435.31 459.733C436.902 460.768 509.243 313.908 509.243 313.908L524.844 280.062C503.624 278.715 486.829 261.046 486.829 239.447C486.829 216.97 505.016 198.75 527.452 198.75C549.549 198.75 567.528 216.425 568.065 238.433C571.258 236.165 573.446 232.517 573.696 228.271L581.603 94.001C581.899 88.9342 577.817 85.5671 573.604 85.5671C571.426 85.5671 569.213 86.4661 567.551 88.4933L455.098 225.801C452.568 228.888 454.762 233.531 458.749 233.531H480.366L473.225 247.237C479.906 251.349 484.363 258.739 484.363 267.171C484.363 280.082 473.916 290.549 461.025 290.549C457.7 290.549 454.539 289.852 451.674 288.596L396.138 395.188L429.264 460.213Z" fill="#FA541C"/>
<path fill-rule="evenodd" clip-rule="evenodd" d="M71.0138 463.73C71.0138 463.73 70.5869 466.103 70.4181 468.923C70.3464 470.126 71.2352 471.171 72.4311 471.286C76.5957 471.691 86.075 472.436 92.1279 471.563C92.9756 471.441 93.3124 470.396 92.6858 469.813C90.1899 467.483 84.1627 462.952 74.2419 461.96L71.0138 463.73Z" fill="#063963"/>
<path fill-rule="evenodd" clip-rule="evenodd" d="M68.9453 458.375L71.0508 463.546C71.3392 464.254 72.057 464.692 72.8165 464.613C73.3322 464.561 73.9427 464.462 74.5364 464.28C75.7248 463.918 76.3949 462.656 76.0393 461.466L74.4502 456.141L68.9453 458.375Z" fill="#FDBAB9"/>
<path fill-rule="evenodd" clip-rule="evenodd" d="M32.948 467.846C32.948 467.846 37.1642 471.382 38.8071 475.913C39.2588 477.162 38.3039 478.473 36.98 478.473H28.3032C27.0332 478.473 26.0599 477.33 26.2809 476.077C26.8339 472.947 28.4275 467.859 32.948 467.846Z" fill="#063963"/>
<path fill-rule="evenodd" clip-rule="evenodd" d="M27.7217 463.246C27.7217 463.246 28.5733 467.022 29.2282 469.52C29.3469 469.972 29.8294 470.222 30.2695 470.064C31.5826 469.593 32.651 469.385 33.4279 469.491C33.7867 469.537 34.1006 469.237 34.1052 468.874L34.1867 462.604L27.7217 463.246Z" fill="#FDBAB9"/>
<path fill-rule="evenodd" clip-rule="evenodd" d="M50.1481 378.273L75.7936 456.653C75.7936 456.653 70.8748 459.879 68.5312 459.744L38.0702 396.755C38.0702 396.755 32.7396 435.567 35.3227 463.431L26.5976 464.1C26.5976 464.1 12.4109 392.89 23.1563 368.502L50.1481 378.273Z" fill="#212B36"/>
<path fill-rule="evenodd" clip-rule="evenodd" d="M54.9555 309.302C54.9555 309.302 34.1778 311.15 37.1171 325.979C37.1171 325.979 25.6316 347.635 20.2616 373.14C20.0872 373.971 20.6421 374.781 21.4766 374.923L56.0788 380.861C57.033 381.022 57.9537 380.426 58.1964 379.487L66.4637 347.477L69.6855 362.361L79.9221 359.689L71.3045 315.955C71.3045 315.955 70.1023 309.575 54.9555 309.302Z" fill="#116E95"/>
<path fill-rule="evenodd" clip-rule="evenodd" d="M64.5528 385.528C63.4627 384.928 62.1868 384.76 60.9796 385.063L58.5722 385.663C58.0604 385.791 57.5535 385.439 57.4946 384.911L55.0033 362.698C51.8881 364.178 47.3939 364.003 45.9121 363.894L51.646 390.082H71.7115L64.5528 385.528Z" fill="#FDBAB9"/>
<path fill-rule="evenodd" clip-rule="evenodd" d="M117.865 337.341L117.259 335.321C116.91 334.161 116.052 333.219 114.928 332.767L103.959 328.348C103.959 328.348 103.794 326.938 106.277 325.979C108.76 325.024 108.18 322.236 108.18 322.236C108.18 322.236 104.787 323.788 99.8205 326.246C96.9799 327.653 95.3863 330.134 94.5413 332.003L69.6855 362.359L72.6038 364.369C76.4411 367.011 81.719 365.713 83.8998 361.591L97.3648 335.723C104.125 337.76 110.966 338.148 117.865 337.341Z" fill="#FDBAB9"/>
<path fill-rule="evenodd" clip-rule="evenodd" d="M61.6861 295.14L55.2954 313.059C55.2954 313.059 60.9546 317.491 65.0843 315.992L68.3045 305.721C68.3045 305.721 65.8448 293.167 61.6861 295.14Z" fill="#FDBAB9"/>
<path fill-rule="evenodd" clip-rule="evenodd" d="M80.7606 288.705C80.7606 288.981 74.6044 306.162 74.6044 306.162L64.8862 302.435L68.3058 285.28C68.3058 285.28 80.7606 284.083 80.7606 288.705Z" fill="#FDBAB9"/>
<path fill-rule="evenodd" clip-rule="evenodd" d="M70.0109 289.461L67.5048 298.349C67.4725 298.463 67.4564 298.578 67.4561 298.697C67.4551 299.422 67.6344 301.916 70.1707 301.577C72.4722 301.27 74.577 301.023 75.9158 301.653C76.5167 301.936 76.8042 302.631 76.5795 303.257C76.02 304.819 74.6938 308.312 73.0791 311.172C72.7515 311.752 72.0331 311.976 71.4272 311.703C69.602 310.869 65.8016 309.007 63.0945 306.79C62.7277 306.49 62.5511 306.019 62.6386 305.551C63.0646 303.277 64.3332 296.363 64.3892 294.381C64.4418 292.521 62.3584 291.1 61.4406 290.566C61.14 290.391 60.9262 290.103 60.8446 289.764C60.5568 288.567 60.3124 285.858 63.7629 285.26C64.4849 285.135 64.9556 284.443 64.8089 283.723C64.5171 282.291 64.6105 280.184 67.3248 279.408C70.0839 278.619 71.82 280.283 72.7028 281.559C73.06 282.074 73.7281 282.242 74.3001 281.986C74.6257 281.84 75.0191 281.833 75.4418 282.191C76.0118 282.672 76.8792 282.525 77.2976 281.908C78.1022 280.721 79.5639 279.537 82.0381 280.339C86.429 281.762 86.2188 286.834 84.6093 289.591C82.9999 292.348 78.3271 290.534 76.1154 288.707C74.4333 287.318 71.8726 288.149 70.7417 288.627C70.3832 288.778 70.1165 289.086 70.0109 289.461Z" fill="#063963"/>
<path fill-rule="evenodd" clip-rule="evenodd" d="M63.5078 297.624C63.5078 297.624 66.1064 292.699 64.388 291.153C62.6697 289.606 59.7587 289.859 59.837 293.71C59.9344 298.5 63.5078 297.624 63.5078 297.624Z" fill="#FDBAB9"/>
<path fill-rule="evenodd" clip-rule="evenodd" d="M57.7171 481.501C57.5207 481.501 57.3211 481.458 57.129 481.366C56.3731 481.01 56.0241 480.055 56.3491 479.228L87.5975 399.796C87.9225 398.969 88.7984 398.59 89.555 398.943C90.3108 399.298 90.6598 400.257 90.3348 401.084L59.0868 480.516C58.844 481.132 58.2944 481.501 57.7171 481.501Z" fill="#22B8CF"/>
<path fill-rule="evenodd" clip-rule="evenodd" d="M92.9211 481.501C92.3435 481.501 91.7939 481.132 91.5515 480.516L60.303 401.084C59.9781 400.257 60.327 399.298 61.0832 398.942C61.8385 398.587 62.7151 398.969 63.0407 399.796L94.2888 479.227C94.6141 480.055 94.2648 481.01 93.5089 481.366C93.3171 481.458 93.1175 481.501 92.9211 481.501Z" fill="#22B8CF"/>
<path fill-rule="evenodd" clip-rule="evenodd" d="M190.727 481.501C190.53 481.501 190.331 481.458 190.139 481.366C189.383 481.01 189.034 480.055 189.359 479.228L220.606 399.796C220.932 398.969 221.807 398.59 222.563 398.943C223.32 399.298 223.669 400.257 223.346 401.084L192.096 480.516C191.854 481.132 191.304 481.501 190.727 481.501Z" fill="#22B8CF"/>
<path fill-rule="evenodd" clip-rule="evenodd" d="M225.93 481.501C225.354 481.501 224.805 481.132 224.561 480.516L193.313 401.084C192.988 400.257 193.337 399.298 194.093 398.942C194.848 398.587 195.725 398.969 196.05 399.796L227.298 479.227C227.624 480.055 227.275 481.01 226.519 481.366C226.328 481.458 226.127 481.501 225.93 481.501Z" fill="#22B8CF"/>
<path fill-rule="evenodd" clip-rule="evenodd" d="M169.772 468.001H173.466V427.974H169.772V468.001Z" fill="#22B8CF"/>
<path fill-rule="evenodd" clip-rule="evenodd" d="M187.8 468.773H155.44V468.599C155.44 467.363 156.439 466.365 157.672 466.365H185.395C186.723 466.365 187.8 467.442 187.8 468.773Z" fill="#22B8CF"/>
<path fill-rule="evenodd" clip-rule="evenodd" d="M192.601 426.587C192.601 428.775 190.813 430.568 188.628 430.568H155.888C153.703 430.568 151.915 428.775 151.915 426.587V422.989C151.915 420.798 153.703 419.008 155.888 419.008H188.628C190.813 419.008 192.601 420.798 192.601 422.989V426.587Z" fill="#77F0ED"/>
<path fill-rule="evenodd" clip-rule="evenodd" d="M155.889 419.009C155.819 418.887 141.59 417.295 141.59 417.295C141.59 417.295 142.056 421.628 140.601 427.593C139.145 433.56 118.255 459.408 118.255 459.408L120.445 466.367C113.672 468.73 107.011 469.106 100.455 467.57L114.03 459.408C114.03 459.408 126.735 416.036 134.517 408.299L148.779 403.356L155.889 419.009Z" fill="#FDBAB9"/>
<path fill-rule="evenodd" clip-rule="evenodd" d="M142.413 404.448C142.413 404.448 137.19 405.258 131.317 409.192C130.392 409.809 129.884 410.89 130.023 411.997C130.727 417.574 133.62 435.634 143.156 453.274C143.657 454.204 143.803 455.287 143.58 456.321L141.924 464.044L138.85 466.929H146.765L152.034 452.649L149.781 451.935C148.033 451.38 146.835 449.771 146.804 447.935L146.538 432.618C146.765 425.79 142.359 421.081 142.359 421.081L155 420.467L142.413 404.448Z" fill="#FDBAB9"/>
<path fill-rule="evenodd" clip-rule="evenodd" d="M135.76 468.326C135.04 469.271 143.517 470.517 147.8 468.453C147.8 468.453 153.74 458.104 153.74 452.777C153.74 452.777 153.266 451.693 149.78 451.94C149.78 451.94 147.785 464.187 145.682 465.56C143.575 466.934 139.793 465.699 139.793 465.699C139.793 465.699 136.823 466.934 135.76 468.326Z" fill="#063963"/>
<path fill-rule="evenodd" clip-rule="evenodd" d="M187.801 393.77C187.801 393.77 195.998 405.985 196.671 411.558C197.343 417.13 194.425 419.394 185.824 419.766C177.222 420.138 154.259 420.135 154.259 420.135L134.661 403.356C134.661 403.356 148.943 398.248 152.657 396.805C156.37 395.362 187.801 393.77 187.801 393.77Z" fill="#212B36"/>
<path fill-rule="evenodd" clip-rule="evenodd" d="M119.618 464.02C119.618 464.02 121.976 466.31 120.383 468.857C120.383 468.857 101.701 472.172 96.6294 470.667C96.6294 470.667 97.6826 468.261 103.394 465.519L102.973 465.842C102.439 466.254 102.752 467.108 103.423 467.068C107.187 466.854 114.976 466.162 119.618 464.02Z" fill="#063963"/>
<path fill-rule="evenodd" clip-rule="evenodd" d="M171.234 325.147C172.473 325.535 176.938 327.14 176.361 330.017C176.285 330.399 176.644 330.722 177.019 330.62C178.943 330.103 183.193 329.447 185.827 332.755C188.154 335.675 186.415 338.43 184.998 339.942C184.656 340.308 184.944 340.901 185.44 340.838C188.977 340.39 196.663 340.285 197.92 347.498C199.093 354.224 194.419 356.118 191.648 356.656C191.179 356.745 191.069 357.364 191.472 357.618C192.855 358.498 194.457 360.313 193.81 363.898C192.795 369.513 181.803 369.055 180.518 368.98C180.437 368.976 180.36 368.953 180.289 368.91L162.682 358.853C162.545 358.774 162.45 358.639 162.423 358.481L158.869 337.916C158.84 337.751 158.892 337.58 159.009 337.458L170.698 325.288C170.837 325.143 171.042 325.087 171.234 325.147Z" fill="#063963"/>
<path fill-rule="evenodd" clip-rule="evenodd" d="M165.905 391.837C165.905 391.837 156.359 382.732 151.659 376.698C149.119 373.439 148.322 369.146 149.496 365.181C151.641 357.939 155.454 350.442 155.802 349.272C156.335 347.483 167.039 347.559 167.039 347.559C167.039 347.559 188.102 361.254 196.378 384.452L187.084 387.352C187.084 387.352 181.584 378.109 176.15 372.23C176.15 372.23 185.553 384.673 185.884 389.767L165.905 391.837Z" fill="#22B8CF"/>
<path fill-rule="evenodd" clip-rule="evenodd" d="M154.232 339.589C154.344 339.961 157.138 349.24 157.356 349.432C157.575 349.623 163.483 349.942 166.264 348.038L161.546 338.142L154.232 339.589Z" fill="#FDBAB9"/>
<path fill-rule="evenodd" clip-rule="evenodd" d="M158.823 320.102C158.823 320.102 153.78 322.234 150.35 329.536C146.921 336.838 149.482 340.209 152.699 340.67C155.915 341.135 160.726 341.063 165.815 336.347C170.903 331.632 165.38 317.571 158.823 320.102Z" fill="#FDBAB9"/>
<path fill-rule="evenodd" clip-rule="evenodd" d="M162.393 332.448C162.393 332.448 166.199 321.765 156.745 321.639L154.52 323.198C154.52 323.198 151.052 317.273 156.745 314.446C162.438 311.619 169.101 313.955 171.524 321.639C173.947 329.324 174.36 334.468 170.33 338.142C166.299 341.819 164.638 337.651 164.638 337.651C164.638 337.651 166.833 334.214 165.939 332.372C165.046 330.533 162.985 332.754 162.985 332.754L162.393 332.448Z" fill="#063963"/>
<path fill-rule="evenodd" clip-rule="evenodd" d="M163.454 333.638C163.454 333.638 165.378 328.135 167.944 330.327C170.51 332.518 165.858 335.411 164.037 336.347L163.454 333.638Z" fill="#FDBAB9"/>
<path fill-rule="evenodd" clip-rule="evenodd" d="M146.181 392.828L153.195 386.056L162.898 390.162C162.898 390.162 172.556 391.661 178.084 390.162C183.611 388.663 183.611 388.663 183.611 388.663L196.103 384.768L198.065 390.323C198.563 391.734 198.062 393.299 196.845 394.166C195.764 394.933 194.497 395.78 193.69 396.133C192.045 396.854 153.139 395.635 153.139 395.635L146.181 392.828Z" fill="#FDBAB9"/>
<path fill-rule="evenodd" clip-rule="evenodd" d="M172.724 396.02C172.693 396.023 172.661 396.023 172.63 396.023L131.944 395.977C130.938 395.977 130.123 395.16 130.125 394.151C130.125 393.143 130.945 392.313 131.948 392.329L172.634 392.375C173.64 392.375 174.454 393.193 174.453 394.201C174.452 395.176 173.686 395.974 172.724 396.02Z" fill="#770508"/>
<path fill-rule="evenodd" clip-rule="evenodd" d="M95.3677 359.012H129.251C131.751 359.012 134.026 360.456 135.093 362.723L150.757 395.998H108.648C107.038 395.998 105.59 395.009 104.998 393.51L92.8511 362.719C92.1495 360.94 93.4583 359.012 95.3677 359.012Z" fill="#770508"/>
<path fill-rule="evenodd" clip-rule="evenodd" d="M119.242 376.075C119.976 378.362 119.433 380.58 118.03 381.035C116.627 381.486 114.894 380 114.159 377.716C113.425 375.429 113.968 373.209 115.371 372.757C116.774 372.306 118.508 373.792 119.242 376.075Z" fill="#FDAB76"/>
<path fill-rule="evenodd" clip-rule="evenodd" d="M91.1228 394.719H51.0806V390.58H91.1228C90.2656 390.58 90.2656 394.719 91.1228 394.719Z" fill="#FDAB76"/>
<path fill-rule="evenodd" clip-rule="evenodd" d="M51.4077 394.718C51.2268 394.718 51.0788 394.57 51.0788 394.389V390.909C51.0788 390.728 51.2268 390.579 51.4077 390.579H92.0131C92.194 390.579 92.342 390.431 92.342 390.25V389.973C92.342 389.792 92.194 389.644 92.0131 389.644H48.7861C47.8309 389.644 47.0566 390.418 47.0566 391.377V394.023C47.0566 394.922 47.7865 395.654 48.6871 395.654H92.0131C92.194 395.654 92.342 395.506 92.342 395.324V395.048C92.342 394.866 92.194 394.718 92.0131 394.718H51.4077Z" fill="#770508"/>
<path fill-rule="evenodd" clip-rule="evenodd" d="M229.587 397.51C229.692 397.048 229.551 396.571 229.206 396.208C228.864 395.846 228.35 395.635 227.808 395.635H44.5573C43.8458 395.635 43.1834 395.948 42.8002 396.472C42.417 396.992 42.3657 397.648 42.664 398.208L44.6501 401.948C45.1046 402.805 46.0898 403.352 47.1739 403.352H226.551C227.561 403.352 228.426 402.733 228.62 401.869L229.587 397.51Z" fill="#77F0ED"/>
<path fill-rule="evenodd" clip-rule="evenodd" d="M277.191 177.025C277.191 181.566 273.517 185.247 268.984 185.247C264.452 185.247 260.774 181.566 260.774 177.025C260.774 172.484 264.452 168.802 268.984 168.802C273.517 168.802 277.191 172.484 277.191 177.025Z" fill="#22B8CF"/>
<path fill-rule="evenodd" clip-rule="evenodd" d="M122.575 189.765L121.489 187.775L197.799 146.004L268.739 177.244L329.65 117.386L329.771 117.316L401.293 75.03L402.441 76.9831L331.038 119.199L269.229 179.936L197.907 148.529L122.575 189.765Z" fill="#22B8CF"/>
<path fill-rule="evenodd" clip-rule="evenodd" d="M130.241 188.77C130.241 193.311 126.567 196.993 122.034 196.993C117.501 196.993 113.827 193.311 113.827 188.77C113.827 184.229 117.501 180.548 122.034 180.548C126.567 180.548 130.241 184.229 130.241 188.77Z" fill="#22B8CF"/>
<path fill-rule="evenodd" clip-rule="evenodd" d="M206.062 147.265C206.062 151.806 202.387 155.487 197.854 155.487C193.321 155.487 189.646 151.806 189.646 147.265C189.646 142.724 193.321 139.043 197.854 139.043C202.387 139.043 206.062 142.724 206.062 147.265Z" fill="#22B8CF"/>
<path fill-rule="evenodd" clip-rule="evenodd" d="M336.599 118.294C336.599 122.835 332.922 126.516 328.389 126.516C323.857 126.516 320.183 122.835 320.183 118.294C320.183 113.753 323.857 110.072 328.389 110.072C332.922 110.072 336.599 113.753 336.599 118.294Z" fill="#22B8CF"/>
<path fill-rule="evenodd" clip-rule="evenodd" d="M410.076 76.0067C410.076 80.5478 406.402 84.229 401.866 84.229C397.333 84.229 393.659 80.5478 393.659 76.0067C393.659 71.4655 397.333 67.7844 401.866 67.7844C406.402 67.7844 410.076 71.4655 410.076 76.0067Z" fill="#22B8CF"/>
<path fill-rule="evenodd" clip-rule="evenodd" d="M331.455 427.8C330.376 429.398 326.09 465.593 325.419 478.962C325.377 479.868 326.097 480.619 327.001 480.619C327.781 480.619 328.442 480.052 328.564 479.281L336.402 428.95L331.455 427.8Z" fill="#22B8CF"/>
<path fill-rule="evenodd" clip-rule="evenodd" d="M365.917 427.8C366.996 429.398 371.282 465.593 371.953 478.962C371.999 479.868 371.275 480.619 370.374 480.619C369.594 480.619 368.93 480.052 368.811 479.281L360.97 428.95L365.917 427.8Z" fill="#22B8CF"/>
<path fill-rule="evenodd" clip-rule="evenodd" d="M324.973 424.97L324.97 425.366C324.944 428.206 327.384 430.536 330.443 430.586L366.681 431.205C369.694 431.254 372.207 429.073 372.352 426.279L372.372 425.916C372.523 423 370.053 420.545 366.912 420.489L330.657 419.836C327.556 419.78 325 422.09 324.973 424.97Z" fill="#77F0ED"/>
<path fill-rule="evenodd" clip-rule="evenodd" d="M395.469 477.644C389.029 477.644 386.177 477.091 384.904 476.587C385.151 477.648 386.095 478.485 387.285 478.485H410.074C410.84 478.485 411.327 477.747 411.143 477.081C408.544 477.292 403.028 477.644 395.469 477.644Z" fill="#063963"/>
<path fill-rule="evenodd" clip-rule="evenodd" d="M411.141 477.081C411.105 476.946 411.049 476.814 410.954 476.692C409.217 474.471 405.73 470.985 400.987 471.054C394.037 471.149 391.616 471.904 386.215 471.093L384.942 475.324C384.811 475.756 384.811 476.188 384.903 476.586C386.176 477.091 389.027 477.644 395.468 477.644C403.027 477.644 408.543 477.292 411.141 477.081Z" fill="#063963"/>
<path fill-rule="evenodd" clip-rule="evenodd" d="M387.777 466.537L386.214 471.866C386.214 471.866 389.678 473.444 392.727 472.175L393.326 467.562L387.777 466.537Z" fill="#FDBAB9"/>
<path fill-rule="evenodd" clip-rule="evenodd" d="M435.012 474.291C429.989 478.334 427.424 479.692 426.118 480.1C426.97 480.766 428.223 480.825 429.154 480.077L446.916 465.779C447.515 465.295 447.436 464.422 446.876 464.02C444.982 465.812 440.903 469.549 435.012 474.291Z" fill="#063963"/>
<path fill-rule="evenodd" clip-rule="evenodd" d="M446.878 464.021C446.766 463.939 446.641 463.873 446.493 463.836C443.756 463.204 438.868 462.686 435.214 465.715C429.856 470.15 428.438 472.256 423.725 475.017L425.363 479.097C425.53 479.515 425.797 479.851 426.119 480.102C427.425 479.693 429.991 478.335 435.013 474.292C440.904 469.55 444.983 465.814 446.878 464.021Z" fill="#063963"/>
<path fill-rule="evenodd" clip-rule="evenodd" d="M354.328 405.835C354.328 405.835 392.895 408.992 400.805 412.722C408.716 416.452 394.349 468.747 394.349 468.747C394.349 468.747 392.194 469.785 387.402 468.293C387.402 468.293 392.316 429.702 388.658 421.332L346.901 414.492L354.328 405.835Z" fill="#212B36"/>
<path fill-rule="evenodd" clip-rule="evenodd" d="M419.891 467.671C420.25 467.997 423.723 475.016 423.723 475.016C423.723 475.016 427.591 474.179 428.377 471.724L424.897 465.391L419.891 467.671Z" fill="#FDBAB9"/>
<path fill-rule="evenodd" clip-rule="evenodd" d="M331.1 405.512C331.1 405.512 329.843 408.544 329.893 412.567C329.965 418.136 334.432 422.654 339.984 422.931L385.577 425.013C386.537 425.059 387.353 425.725 387.593 426.661C388.665 430.813 393.902 443.562 419.502 469.001C420.183 469.677 421.242 469.792 422.055 469.278L425.699 466.975C426.081 466.731 426.202 466.23 425.976 465.838L399.428 420.426C398.033 418.12 395.793 416.456 393.185 415.787L354.329 405.835L331.1 405.512Z" fill="#212B36"/>
<path fill-rule="evenodd" clip-rule="evenodd" d="M383.994 335.588C383.994 335.588 371.149 343.22 366.169 347.412L376.461 353.165C376.461 353.165 382.023 346.73 387.322 344.047L383.994 335.588Z" fill="#FDBAB9"/>
<path fill-rule="evenodd" clip-rule="evenodd" d="M330.272 405.833C330.272 405.833 342.581 408.838 354.33 405.833C354.33 405.833 370.767 383.696 377.128 377.669C377.128 377.669 387.272 393.707 409.853 395.98L411.113 393.16C411.113 393.16 393.137 384.859 387.601 372.103C382.069 359.347 379.845 353.907 374.809 350.579C371.674 348.506 369.796 347.089 368.826 346.318C368.296 345.893 367.563 345.847 366.984 346.199C361.639 349.462 336.499 366.712 330.272 405.833Z" fill="#116E95"/>
<g opacity="0.12">
<path fill-rule="evenodd" clip-rule="evenodd" d="M38.2322 396.074H38.201C38.0648 396.054 37.9681 395.929 37.9855 395.794L38.9809 387.882C38.9976 387.743 39.1207 387.648 39.2582 387.664C39.3943 387.681 39.4907 387.806 39.4736 387.944L38.4783 395.856C38.4625 395.981 38.3556 396.074 38.2322 396.074Z" fill="black"/>
<path fill-rule="evenodd" clip-rule="evenodd" d="M66.6391 346.046L66.5839 346.039C66.4451 346.01 66.3569 345.871 66.3869 345.733L69.2712 332.463C69.3018 332.325 69.437 332.236 69.5781 332.265C69.7166 332.298 69.8051 332.434 69.7748 332.575L66.8904 345.842C66.8641 345.964 66.7576 346.046 66.6391 346.046Z" fill="black"/>
<path fill-rule="evenodd" clip-rule="evenodd" d="M47.9255 364.227C46.5075 364.227 45.4951 364.119 45.3859 364.106L45.2014 364.086L37.6357 328.748C37.6058 328.609 37.6942 328.471 37.8334 328.441C37.9738 328.412 38.1094 328.501 38.1393 328.639L45.6267 363.611C46.7526 363.71 52.765 364.109 55.9392 361.858L49.3853 331.157L50.7533 328.573C50.8198 328.448 50.9757 328.398 51.1016 328.464C51.2273 328.533 51.2753 328.688 51.2085 328.814L49.928 331.232L56.5122 362.076L56.3806 362.175C54.0873 363.901 50.3928 364.227 47.9255 364.227Z" fill="black"/>
<path fill-rule="evenodd" clip-rule="evenodd" d="M376.458 376.836C376.514 376.836 376.573 376.817 376.619 376.78C376.738 376.691 376.761 376.523 376.669 376.405C372.843 371.406 370.646 365.725 370.626 365.669C370.57 365.53 370.416 365.461 370.278 365.514C370.14 365.567 370.07 365.722 370.126 365.86C370.146 365.919 372.373 371.669 376.244 376.731C376.297 376.8 376.376 376.836 376.458 376.836Z" fill="black"/>
</g>
<path fill-rule="evenodd" clip-rule="evenodd" d="M408.492 391.685L411.035 391.007L418.751 389.217C419.679 389.003 420.656 389.168 421.462 389.675L428.1 393.857L409.775 393.827L408.492 391.685Z" fill="#FDBAB9"/>
<path fill-rule="evenodd" clip-rule="evenodd" d="M401.416 397.461C401.445 397.461 401.475 397.464 401.505 397.464L440.65 397.425C441.617 397.425 442.403 396.637 442.4 395.671C442.4 394.703 441.611 393.902 440.647 393.918L401.501 393.958C400.534 393.958 399.751 394.745 399.751 395.711C399.751 396.65 400.488 397.415 401.416 397.461Z" fill="#FEE9D1"/>
<path fill-rule="evenodd" clip-rule="evenodd" d="M455.938 360.591L455.901 360.668L440.428 393.871C440.048 394.692 440.403 395.664 441.228 396.045C442.05 396.424 443.042 396.073 443.41 395.246L458.882 362.043C459.262 361.222 458.907 360.25 458.082 359.868C457.285 359.502 456.343 359.825 455.938 360.591Z" fill="#FEE9D1"/>
<path fill-rule="evenodd" clip-rule="evenodd" d="M427.788 399.426C427.959 400.137 444.293 461.508 448.435 477.064C448.911 478.857 447.579 480.617 445.747 480.617C444.471 480.617 443.356 479.737 443.047 478.481L424.916 404.833L427.788 399.426Z" fill="#22B8CF"/>
<path fill-rule="evenodd" clip-rule="evenodd" d="M418.845 399.425C418.674 400.137 402.339 461.507 398.198 477.064C397.721 478.857 399.053 480.616 400.885 480.616C402.165 480.616 403.277 479.736 403.586 478.481L421.716 404.833L418.845 399.425Z" fill="#22B8CF"/>
<path d="M418.297 397.418H428.471V404.908C428.471 406.467 427.224 407.732 425.685 407.732H420.399C419.238 407.732 418.297 406.78 418.297 405.604V397.418Z" fill="#22B8CF"/>
<path fill-rule="evenodd" clip-rule="evenodd" d="M393.286 395.457H450.089C450.882 395.457 451.576 396 451.773 396.781L452.566 399.895C452.852 401.016 452.013 402.106 450.872 402.1L392.586 401.76C391.457 401.754 390.632 400.676 390.908 399.566L391.599 396.791C391.793 396.007 392.49 395.457 393.286 395.457Z" fill="#77F0ED"/>
<path fill-rule="evenodd" clip-rule="evenodd" d="M392.783 332.579C392.783 332.579 392.901 341.713 391.427 345.862C389.954 350.007 389.724 353.006 384.704 351.853C379.685 350.703 376.721 346.712 376.277 341.776C376.277 341.776 375.54 334.147 377.359 331.913C379.175 329.682 392.783 332.579 392.783 332.579Z" fill="#FDBAB9"/>
<path fill-rule="evenodd" clip-rule="evenodd" d="M379.089 339.547L379.681 339.794C379.681 339.794 379.343 333.764 381.852 333.784C384.362 333.803 393.569 335.639 396.664 333.395C399.644 331.23 399.644 326.814 397.733 324.774C397.611 324.643 397.404 324.639 397.269 324.751L396.917 325.041C396.68 325.236 396.322 325.041 396.358 324.735C396.391 324.442 396.065 324.237 395.825 324.405C394.888 325.071 392.756 325.901 388.372 324.943C382.155 323.582 377.356 324.316 375.59 328.274C375.474 328.524 375.149 328.551 374.988 328.327C374.669 327.888 374.04 327.48 372.807 327.865C370.662 328.531 369.86 332.268 372.139 336.578C372.248 336.782 372.139 337.043 371.909 337.082C371.11 337.23 369.761 337.81 371.646 340.137C373.577 342.516 375.109 342.991 375.728 343.083C375.892 343.106 376.05 343.014 376.106 342.855L377.372 339.221C377.435 339.033 377.645 338.941 377.83 339.017L379.089 339.547Z" fill="#063963"/>
<path fill-rule="evenodd" clip-rule="evenodd" d="M378.927 340.348C378.927 340.348 379.713 334.878 376.927 335.333C374.141 335.788 375.756 341.34 377.453 342.273L378.927 340.348Z" fill="#FDBAB9"/>
<path fill-rule="evenodd" clip-rule="evenodd" d="M460.869 291.476C457.467 291.476 454.234 290.763 451.303 289.478C442.882 285.784 437 277.361 437 267.561C437 254.354 447.686 243.647 460.869 243.647C465.445 243.647 469.718 244.936 473.349 247.17C480.183 251.377 484.742 258.936 484.742 267.561C484.742 280.769 474.055 291.476 460.869 291.476ZM460.869 244.442C448.124 244.442 437.794 254.793 437.794 267.561C437.794 280.33 448.124 290.68 460.869 290.68C473.615 290.68 483.948 280.33 483.948 267.561C483.948 254.793 473.615 244.442 460.869 244.442Z" fill="#B7860D"/>
<path fill-rule="evenodd" clip-rule="evenodd" d="M460.871 290.68C448.125 290.68 437.795 280.33 437.795 267.561C437.795 254.793 448.125 244.442 460.871 244.442C473.616 244.442 483.949 254.793 483.949 267.561C483.949 280.33 473.616 290.68 460.871 290.68ZM461.375 248.498C450.588 248.498 441.843 257.258 441.843 268.065C441.843 278.872 450.588 287.632 461.375 287.632C472.162 287.632 480.907 278.872 480.907 268.065C480.907 257.258 472.162 248.498 461.375 248.498ZM460.871 245.447C452.489 245.447 444.932 250.107 441.153 257.61C440.962 257.99 441.113 258.455 441.493 258.648C441.608 258.704 441.725 258.731 441.843 258.731C442.122 258.731 442.395 258.576 442.53 258.306C446.049 251.328 453.074 246.993 460.871 246.993C462.115 246.993 463.364 247.106 464.575 247.326C464.626 247.335 464.673 247.34 464.72 247.34C465.086 247.34 465.406 247.076 465.473 246.704C465.551 246.284 465.272 245.882 464.854 245.806C463.549 245.568 462.21 245.447 460.871 245.447Z" fill="#FFC81A"/>
<path fill-rule="evenodd" clip-rule="evenodd" d="M441.837 258.733C441.719 258.733 441.601 258.706 441.487 258.65C441.107 258.457 440.955 257.992 441.147 257.612C444.926 250.109 452.483 245.449 460.864 245.449C462.203 245.449 463.543 245.57 464.848 245.808C465.265 245.884 465.545 246.286 465.467 246.706C465.4 247.078 465.08 247.342 464.713 247.342C464.666 247.342 464.619 247.337 464.569 247.328C463.357 247.108 462.109 246.995 460.864 246.995C453.068 246.995 446.043 251.33 442.523 258.308C442.389 258.577 442.116 258.733 441.837 258.733Z" fill="#FFE475"/>
<path fill-rule="evenodd" clip-rule="evenodd" d="M461.375 287.637C450.588 287.637 441.843 278.876 441.843 268.069C441.843 257.262 450.588 248.502 461.375 248.502C472.162 248.502 480.907 257.262 480.907 268.069C480.907 278.876 472.162 287.637 461.375 287.637Z" fill="#FFE475"/>
<path fill-rule="evenodd" clip-rule="evenodd" d="M459.453 282.611V280.483C457.239 280.394 455.049 279.87 453.491 279.187C452.936 278.944 452.653 278.319 452.811 277.733L453.353 275.75C453.548 275.022 454.339 274.646 455.032 274.938C456.576 275.586 458.484 276.099 460.54 276.099C462.673 276.099 464.265 275.374 464.265 273.889C464.265 272.548 463.033 271.751 460.069 270.954C455.836 269.795 452.801 267.947 452.801 264.216C452.801 260.846 455.257 258.274 459.527 257.586V255.457C459.527 254.772 460.079 254.216 460.765 254.216H462.014C462.697 254.216 463.252 254.772 463.252 255.457V257.368C465.301 257.45 466.792 257.802 467.976 258.218C468.585 258.432 468.915 259.087 468.746 259.708L468.252 261.543C468.06 262.249 467.303 262.637 466.62 262.377C465.53 261.965 463.989 261.534 461.987 261.534C459.453 261.534 458.73 262.585 458.73 263.527C458.73 264.686 460.251 265.483 463.541 266.498C468.242 267.911 470.193 269.867 470.193 273.382C470.193 276.606 467.808 279.504 463.178 280.229V282.611C463.178 283.297 462.626 283.852 461.94 283.852H460.691C460.008 283.852 459.453 283.297 459.453 282.611Z" fill="#B7860D"/>
<path fill-rule="evenodd" clip-rule="evenodd" d="M527.243 281.23C526.336 281.23 525.435 281.202 524.538 281.145C502.53 279.747 485.11 261.421 485.11 239.02C485.11 215.708 503.973 196.81 527.243 196.81C550.162 196.81 568.81 215.142 569.366 237.968C569.372 238.317 569.379 238.668 569.379 239.02C569.379 246.469 567.452 253.467 564.071 259.542C559.421 267.902 552.014 274.513 543.086 278.145C538.194 280.135 532.848 281.23 527.243 281.23ZM527.243 198.213C504.747 198.213 486.509 216.483 486.509 239.02C486.509 261.557 504.747 279.826 527.243 279.826C549.739 279.826 567.977 261.557 567.977 239.02C567.977 216.483 549.739 198.213 527.243 198.213Z" fill="#B7860D"/>
<path fill-rule="evenodd" clip-rule="evenodd" d="M527.244 279.825C504.748 279.825 486.51 261.556 486.51 239.018C486.51 216.481 504.748 198.211 527.244 198.211C549.74 198.211 567.978 216.481 567.978 239.018C567.978 261.556 549.74 279.825 527.244 279.825ZM528.131 205.37C509.091 205.37 493.657 220.833 493.657 239.907C493.657 258.982 509.091 274.445 528.131 274.445C547.171 274.445 562.608 258.982 562.608 239.907C562.608 220.833 547.171 205.37 528.131 205.37ZM527.244 200.565C512.67 200.565 499.532 208.669 492.958 221.715C492.763 222.1 492.917 222.572 493.302 222.767C493.418 222.825 493.538 222.851 493.657 222.851C493.94 222.851 494.216 222.694 494.356 222.42C500.661 209.907 513.263 202.133 527.244 202.133C529.475 202.133 531.713 202.334 533.886 202.731C533.937 202.741 533.985 202.746 534.033 202.746C534.405 202.746 534.729 202.477 534.797 202.101C534.875 201.675 534.592 201.267 534.169 201.19C531.901 200.774 529.57 200.565 527.244 200.565Z" fill="#FFC81A"/>
<path fill-rule="evenodd" clip-rule="evenodd" d="M493.66 222.854C493.54 222.854 493.421 222.827 493.305 222.77C492.919 222.574 492.766 222.103 492.96 221.717C499.534 208.672 512.672 200.567 527.246 200.567C529.573 200.567 531.903 200.777 534.172 201.192C534.595 201.269 534.878 201.677 534.8 202.104C534.731 202.48 534.407 202.748 534.035 202.748C533.988 202.748 533.94 202.743 533.889 202.734C531.716 202.336 529.478 202.135 527.246 202.135C513.266 202.135 500.664 209.909 494.359 222.423C494.219 222.696 493.943 222.854 493.66 222.854Z" fill="#FFE475"/>
<path fill-rule="evenodd" clip-rule="evenodd" d="M528.132 274.449C509.092 274.449 493.658 258.986 493.658 239.911C493.658 220.836 509.092 205.373 528.132 205.373C547.172 205.373 562.609 220.836 562.609 239.911C562.609 258.986 547.172 274.449 528.132 274.449Z" fill="#FFE475"/>
<path fill-rule="evenodd" clip-rule="evenodd" d="M524.747 265.588V261.83C520.837 261.673 516.968 260.749 514.222 259.544C513.239 259.114 512.741 258.011 513.021 256.976L513.976 253.476C514.324 252.192 515.72 251.528 516.944 252.043C519.667 253.187 523.034 254.092 526.66 254.092C530.427 254.092 533.235 252.813 533.235 250.191C533.235 247.825 531.065 246.419 525.832 245.012C518.364 242.966 513.001 239.704 513.001 233.118C513.001 227.17 517.34 222.63 524.873 221.416V217.657C524.873 216.448 525.852 215.468 527.06 215.468H529.264C530.468 215.468 531.447 216.448 531.447 217.657V221.031C535.067 221.176 537.7 221.796 539.788 222.532C540.859 222.909 541.446 224.065 541.149 225.162L540.273 228.399C539.935 229.648 538.604 230.331 537.397 229.873C535.469 229.144 532.75 228.385 529.212 228.385C524.747 228.385 523.471 230.24 523.471 231.903C523.471 233.949 526.149 235.355 531.959 237.146C540.256 239.64 543.705 243.093 543.705 249.296C543.705 254.988 539.491 260.103 531.321 261.383V265.588C531.321 266.797 530.342 267.777 529.134 267.777H526.93C525.722 267.777 524.747 266.797 524.747 265.588Z" fill="#B7860D"/>
<path fill-rule="evenodd" clip-rule="evenodd" d="M555.26 371.799C551.188 371.799 547.254 371.216 543.534 370.128C526.894 365.268 514.542 350.314 513.526 332.329C513.48 331.531 513.457 330.731 513.457 329.923C513.457 328.483 513.529 327.06 513.671 325.656C515.411 308.448 527.552 294.314 543.699 289.668C545.314 289.203 546.968 288.834 548.656 288.565C550.807 288.223 553.011 288.045 555.26 288.045C564.661 288.045 573.338 291.155 580.325 296.404C590.485 304.044 597.061 316.215 597.061 329.923C597.061 353.049 578.345 371.799 555.26 371.799ZM555.26 289.438C532.939 289.438 514.848 307.562 514.848 329.923C514.848 352.281 532.939 370.408 555.26 370.408C577.578 370.408 595.672 352.281 595.672 329.923C595.672 307.562 577.578 289.438 555.26 289.438Z" fill="#B7860D"/>
<path fill-rule="evenodd" clip-rule="evenodd" d="M555.261 370.407C532.94 370.407 514.849 352.28 514.849 329.922C514.849 307.56 532.94 289.436 555.261 289.436C577.579 289.436 595.673 307.56 595.673 329.922C595.673 352.28 577.579 370.407 555.261 370.407ZM556.143 296.538C537.252 296.538 521.938 311.877 521.938 330.801C521.938 349.726 537.252 365.069 556.143 365.069C575.03 365.069 590.345 349.726 590.345 330.801C590.345 311.877 575.03 296.538 556.143 296.538ZM555.261 291.793C540.808 291.793 527.783 299.828 521.263 312.763C521.076 313.136 521.227 313.59 521.599 313.778C521.707 313.834 521.822 313.861 521.938 313.861C522.214 313.861 522.477 313.706 522.612 313.445C528.871 301.021 541.38 293.305 555.261 293.305C557.475 293.305 559.695 293.505 561.856 293.899C561.902 293.908 561.948 293.912 561.994 293.912C562.353 293.912 562.665 293.655 562.734 293.292C562.807 292.88 562.537 292.487 562.126 292.413C559.876 292.001 557.567 291.793 555.261 291.793Z" fill="#FFC81A"/>
<path fill-rule="evenodd" clip-rule="evenodd" d="M521.936 313.861C521.821 313.861 521.706 313.835 521.597 313.779C521.226 313.591 521.074 313.136 521.262 312.764C527.781 299.828 540.806 291.794 555.26 291.794C557.565 291.794 559.874 292.001 562.124 292.413C562.535 292.487 562.805 292.88 562.733 293.292C562.664 293.655 562.351 293.912 561.993 293.912C561.947 293.912 561.901 293.908 561.855 293.899C559.693 293.505 557.473 293.305 555.26 293.305C541.379 293.305 528.87 301.022 522.61 313.446C522.475 313.706 522.212 313.861 521.936 313.861Z" fill="#FFE475"/>
<path fill-rule="evenodd" clip-rule="evenodd" d="M556.145 365.066C537.255 365.066 521.94 349.723 521.94 330.799C521.94 311.874 537.255 296.535 556.145 296.535C575.032 296.535 590.347 311.874 590.347 330.799C590.347 349.723 575.032 365.066 556.145 365.066Z" fill="#FFE475"/>
<path fill-rule="evenodd" clip-rule="evenodd" d="M552.782 356.274V352.544C548.903 352.389 545.065 351.473 542.341 350.277C541.368 349.851 540.871 348.757 541.151 347.729L542.095 344.256C542.443 342.984 543.825 342.325 545.042 342.836C547.746 343.969 551.081 344.869 554.683 344.869C558.419 344.869 561.205 343.6 561.205 340.997C561.205 338.651 559.051 337.257 553.857 335.86C546.45 333.83 541.131 330.594 541.131 324.06C541.131 318.158 545.437 313.653 552.91 312.451V308.72C552.91 307.521 553.88 306.549 555.077 306.549H557.262C558.459 306.549 559.432 307.521 559.432 308.72V312.068C563.021 312.213 565.633 312.826 567.708 313.558C568.771 313.93 569.35 315.077 569.057 316.168L568.185 319.377C567.85 320.616 566.531 321.295 565.33 320.84C563.422 320.119 560.722 319.364 557.215 319.364C552.782 319.364 551.515 321.206 551.515 322.854C551.515 324.883 554.176 326.281 559.939 328.057C568.172 330.532 571.59 333.955 571.59 340.111C571.59 345.755 567.409 350.833 559.304 352.102V356.274C559.304 357.473 558.334 358.445 557.137 358.445H554.949C553.752 358.445 552.782 357.473 552.782 356.274Z" fill="#B7860D"/>
<path fill-rule="evenodd" clip-rule="evenodd" d="M608.889 303.561C598.446 303.561 589.226 298.326 583.697 290.332C580.269 285.377 578.263 279.362 578.263 272.878C578.263 265.488 580.868 258.708 585.213 253.412C586.614 251.703 588.196 250.15 589.93 248.779C595.143 244.656 601.732 242.195 608.889 242.195C610.826 242.195 612.724 242.375 614.563 242.72C628.766 245.386 639.515 257.875 639.515 272.878C639.515 289.824 625.806 303.561 608.889 303.561ZM608.889 243.215C592.535 243.215 579.279 256.495 579.279 272.878C579.279 289.26 592.535 302.541 608.889 302.541C625.243 302.541 638.499 289.26 638.499 272.878C638.499 256.495 625.243 243.215 608.889 243.215Z" fill="#B7860D"/>
<path fill-rule="evenodd" clip-rule="evenodd" d="M608.885 302.539C592.531 302.539 579.275 289.259 579.275 272.877C579.275 256.494 592.531 243.214 608.885 243.214C625.24 243.214 638.496 256.494 638.496 272.877C638.496 289.259 625.24 302.539 608.885 302.539ZM609.53 248.417C595.689 248.417 584.469 259.657 584.469 273.523C584.469 287.388 595.689 298.629 609.53 298.629C623.371 298.629 634.591 287.388 634.591 273.523C634.591 259.657 623.371 248.417 609.53 248.417ZM608.885 244.739C598.218 244.739 588.607 250.668 583.795 260.214C583.607 260.586 583.759 261.041 584.13 261.229C584.239 261.285 584.354 261.31 584.469 261.31C584.745 261.31 585.012 261.158 585.143 260.895C589.696 251.862 598.794 246.25 608.885 246.25C610.494 246.25 612.109 246.395 613.681 246.682C613.731 246.691 613.777 246.696 613.823 246.696C614.181 246.696 614.494 246.436 614.559 246.074C614.632 245.663 614.362 245.27 613.951 245.195C612.29 244.892 610.586 244.739 608.885 244.739Z" fill="#FFC81A"/>
<path fill-rule="evenodd" clip-rule="evenodd" d="M584.47 261.31C584.355 261.31 584.24 261.284 584.131 261.229C583.76 261.041 583.608 260.586 583.796 260.214C588.608 250.668 598.219 244.738 608.886 244.738C610.587 244.738 612.291 244.892 613.952 245.195C614.363 245.269 614.633 245.663 614.56 246.074C614.495 246.436 614.182 246.696 613.824 246.696C613.778 246.696 613.732 246.691 613.682 246.682C612.11 246.395 610.495 246.25 608.886 246.25C598.795 246.25 589.697 251.862 585.144 260.895C585.013 261.158 584.746 261.31 584.47 261.31Z" fill="#FFE475"/>
<path fill-rule="evenodd" clip-rule="evenodd" d="M609.531 298.625C595.689 298.625 584.47 287.384 584.47 273.519C584.47 259.653 595.689 248.413 609.531 248.413C623.372 248.413 634.592 259.653 634.592 273.519C634.592 287.384 623.372 298.625 609.531 298.625Z" fill="#FFE475"/>
<path fill-rule="evenodd" clip-rule="evenodd" d="M607.071 292.186V289.455C604.226 289.341 601.417 288.669 599.421 287.793C598.707 287.481 598.342 286.679 598.549 285.927L599.24 283.382C599.493 282.449 600.506 281.966 601.397 282.34C603.378 283.172 605.825 283.831 608.463 283.831C611.199 283.831 613.242 282.9 613.242 280.994C613.242 279.275 611.663 278.252 607.858 277.23C602.43 275.742 598.532 273.371 598.532 268.584C598.532 264.261 601.687 260.96 607.164 260.077V257.346C607.164 256.467 607.874 255.754 608.752 255.754H610.354C611.229 255.754 611.943 256.467 611.943 257.346V259.798C614.571 259.903 616.485 260.354 618.005 260.889C618.785 261.163 619.209 262.003 618.992 262.8L618.357 265.154C618.11 266.061 617.143 266.558 616.265 266.225C614.867 265.695 612.887 265.144 610.318 265.144C607.071 265.144 606.141 266.491 606.141 267.7C606.141 269.188 608.091 270.21 612.315 271.512C618.344 273.325 620.85 275.835 620.85 280.344C620.85 284.481 617.788 288.2 611.847 289.13V292.186C611.847 293.065 611.137 293.778 610.262 293.778H608.657C607.782 293.778 607.071 293.065 607.071 292.186Z" fill="#B7860D"/>
<path fill-rule="evenodd" clip-rule="evenodd" d="M345.824 41.2931C345.824 41.2931 340.041 52.4237 331.43 49.054C322.815 45.6846 314.957 40.1427 310.964 41.8734C310.964 41.8734 326.187 22.6539 345.972 36.8692L345.824 41.2931Z" fill="#FDAB76"/>
<path fill-rule="evenodd" clip-rule="evenodd" d="M363.872 12.2423C367.714 13.8612 368.891 26.1231 368.891 26.1231C368.891 26.1231 356.01 30.2781 350.731 28.496C346.36 27.0201 334.666 18.3826 330.775 15.4561C329.969 14.8505 329.502 13.8981 329.515 12.8888C329.518 12.7669 329.607 12.6667 329.729 12.6588C332.433 12.4815 360.217 10.7024 363.872 12.2423ZM363.147 68.4837C367.029 66.9653 368.525 54.738 368.525 54.738C368.525 54.738 355.756 50.2505 350.431 51.8952C346.023 53.2571 334.109 61.5888 330.146 64.4131C329.324 64.9977 328.833 65.9378 328.82 66.9468C328.82 67.069 328.906 67.1712 329.028 67.1824C331.725 67.4296 359.453 69.9283 363.147 68.4837ZM339.912 14.1604C339.817 14.1647 339.731 14.1228 339.679 14.0543C339.642 14.0092 339.619 13.9525 339.616 13.8905C339.609 13.7347 339.728 13.6019 339.886 13.5946L339.91 13.5935L339.91 13.5935C340.604 13.5614 355.392 12.876 361.838 12.8267C363.009 12.8179 364.075 13.5007 364.555 14.5657C365.48 16.6187 366.726 19.755 367.42 23.0404C367.453 23.1936 367.354 23.3436 367.203 23.3758C367.049 23.4085 366.897 23.3109 366.868 23.1574C366.147 19.7511 364.786 16.4582 364.039 14.7987C363.651 13.938 362.789 13.386 361.845 13.3933C355.286 13.4434 340.063 14.1532 339.912 14.1604ZM339.201 66.5162C339.119 66.5103 339.046 66.4697 339 66.4108C338.958 66.357 338.935 66.2872 338.938 66.2134C338.951 66.0572 339.086 65.9399 339.24 65.9514L339.246 65.9518C339.601 65.9776 354.636 67.0683 361.147 67.287C362.094 67.3189 362.969 66.7897 363.377 65.9389C364.167 64.2998 365.614 61.0438 366.42 57.6563C366.456 57.5044 366.611 57.4105 366.762 57.4467C366.913 57.483 367.005 57.6359 366.972 57.7878C366.15 61.227 364.686 64.5256 363.887 66.1854C363.38 67.2375 362.298 67.8926 361.127 67.8531C354.562 67.6326 339.352 66.5274 339.201 66.5162Z" fill="#B3200E"/>
<path fill-rule="evenodd" clip-rule="evenodd" d="M409.822 55.1195C404.116 56.9035 397.534 58.101 390.205 58.0272C367.463 57.7985 350.787 53.6897 346.076 52.3943C345.224 52.1601 344.58 51.472 344.376 50.611C342.771 43.8228 342.81 37.0488 344.481 30.2893C344.793 29.018 345.8 28.0317 347.073 27.7279C352.592 26.4111 368.894 23.0605 390.653 23.4062C397.922 23.5215 404.431 24.8693 410.059 26.7772C413.066 38.1102 411.22 49.0072 409.822 55.1195Z" fill="#FA541C"/>
<path fill-rule="evenodd" clip-rule="evenodd" d="M410.059 26.7747C422.496 30.9893 430.65 37.9389 433.262 40.3912C433.775 40.8703 433.761 41.6816 433.238 42.1476C430.571 44.5228 422.292 51.2203 409.822 55.1169C411.22 49.0046 413.065 38.1076 410.059 26.7747Z" fill="#B3200E"/>
<path fill-rule="evenodd" clip-rule="evenodd" d="M392.074 29.2892C386.183 29.2127 381.341 34.2854 381.259 40.6192C381.18 46.9529 385.887 52.1495 391.778 52.2256C397.669 52.3021 402.511 47.2294 402.593 40.8956C402.675 34.5619 397.965 29.3653 392.074 29.2892Z" fill="#B3200E"/>
<path fill-rule="evenodd" clip-rule="evenodd" d="M392.346 31.3024C387.653 31.2415 383.794 35.2834 383.728 40.3304C383.663 45.377 387.416 49.5178 392.109 49.5788C396.803 49.6394 400.662 45.5975 400.727 40.5508C400.793 35.5039 397.04 31.3634 392.346 31.3024Z" fill="#FDAB76"/>
<path fill-rule="evenodd" clip-rule="evenodd" d="M393.729 46.8601C393.798 46.9467 393.913 46.9879 394.028 46.955C396.926 46.1068 398.978 43.3131 399.018 40.1602C399.028 39.3664 398.916 38.5844 398.682 37.8367C398.636 37.6871 398.475 37.6047 398.327 37.6515C398.179 37.6983 398.094 37.8568 398.143 38.0061C398.357 38.6965 398.462 39.4194 398.452 40.1529C398.416 43.059 396.531 45.6326 393.87 46.4112C393.719 46.4551 393.633 46.6123 393.676 46.7622C393.686 46.7991 393.706 46.8317 393.729 46.8601Z" fill="#FA541C"/>
<path fill-rule="evenodd" clip-rule="evenodd" d="M370.59 32.9022C366.699 32.8518 363.501 36.2027 363.445 40.3873C363.393 44.5716 366.501 48.0045 370.396 48.055C374.287 48.1054 377.484 44.7541 377.54 40.5698C377.593 36.3856 374.481 32.9529 370.59 32.9022Z" fill="#B3200E"/>
<path fill-rule="evenodd" clip-rule="evenodd" d="M370.77 34.2295C367.668 34.1893 365.119 36.8594 365.076 40.1938C365.033 43.5279 367.514 46.2633 370.612 46.3035C373.714 46.3437 376.263 43.6736 376.306 40.3391C376.349 37.005 373.872 34.2697 370.77 34.2295Z" fill="#FDAB76"/>
<path fill-rule="evenodd" clip-rule="evenodd" d="M371.605 44.5715C371.675 44.6585 371.793 44.6997 371.905 44.6664C373.862 44.095 375.247 42.2118 375.273 40.0871C375.28 39.5526 375.204 39.0253 375.046 38.5215C375 38.3725 374.839 38.2895 374.691 38.3363C374.543 38.3834 374.457 38.5419 374.507 38.6912C374.645 39.1377 374.714 39.605 374.707 40.0798C374.684 41.9581 373.467 43.6202 371.747 44.1227C371.599 44.1669 371.51 44.3241 371.556 44.474C371.566 44.5109 371.582 44.5435 371.605 44.5715Z" fill="#FA541C"/>
<g opacity="0.24">
<path fill-rule="evenodd" clip-rule="evenodd" d="M345.225 30.2158C345.412 29.9664 345.768 29.9163 346.018 30.1044C346.741 30.6518 347.475 31.2403 348.192 31.8549L348.429 32.0575L348.373 32.4355C348.33 32.7449 348.044 32.9591 347.735 32.9136C347.531 32.8846 347.373 32.7535 347.297 32.5785C346.646 32.0285 345.988 31.5013 345.337 31.0087C345.297 30.9797 345.264 30.9464 345.235 30.9101C345.077 30.7127 345.067 30.4267 345.225 30.2158ZM340.442 27.2168C340.59 26.9417 340.936 26.8399 341.209 26.9891C342.028 27.4343 342.857 27.9279 343.672 28.4578C343.932 28.6285 344.008 28.9785 343.84 29.2408C343.669 29.5031 343.32 29.5782 343.057 29.4078C342.268 28.8948 341.462 28.4153 340.669 27.9843C340.6 27.9471 340.544 27.898 340.498 27.8406C340.36 27.6683 340.33 27.4231 340.442 27.2168ZM346.442 37.8766L346.85 35.0746C346.896 34.7652 347.182 34.5507 347.491 34.5952C347.8 34.64 348.014 34.9273 347.968 35.2371L347.564 38.039C347.518 38.3484 347.231 38.563 346.922 38.5182C346.774 38.4967 346.649 38.4196 346.56 38.3115C346.468 38.1932 346.422 38.038 346.442 37.8766ZM335.226 25.0763C335.321 24.7784 335.64 24.6149 335.936 24.7108C336.827 24.9991 337.735 25.3412 338.627 25.7281C338.913 25.8523 339.044 26.1854 338.923 26.4728C338.798 26.7598 338.465 26.8919 338.179 26.7677C337.318 26.3953 336.446 26.0661 335.587 25.7887C335.479 25.7534 335.387 25.6879 335.321 25.6038C335.206 25.4605 335.163 25.2641 335.226 25.0763ZM345.633 43.4808L346.037 40.6788C346.083 40.3694 346.37 40.1549 346.679 40.1994C346.988 40.2442 347.202 40.5315 347.156 40.8413L346.751 43.6432C346.705 43.9526 346.419 44.1672 346.11 44.1223C345.962 44.1009 345.837 44.0241 345.751 43.9157C345.656 43.7974 345.61 43.6422 345.633 43.4808ZM329.683 24.033C329.716 23.7219 329.992 23.4942 330.301 23.5255C331.249 23.6194 332.209 23.7684 333.153 23.9674C333.456 24.0313 333.653 24.3322 333.587 24.6383C333.525 24.9441 333.222 25.1405 332.92 25.0756C332.015 24.8848 331.097 24.7425 330.19 24.6525C330.032 24.6367 329.897 24.5576 329.805 24.4426C329.716 24.3312 329.67 24.1862 329.683 24.033ZM324.049 24.2195C324.012 23.9091 324.233 23.627 324.542 23.5898C325.499 23.4744 326.469 23.4105 327.42 23.3996C327.733 23.3964 327.989 23.6478 327.992 23.9598C327.996 24.2722 327.746 24.5289 327.433 24.5325C326.522 24.5428 325.595 24.6037 324.677 24.7148C324.476 24.7385 324.285 24.6532 324.167 24.5052C324.104 24.4258 324.062 24.3282 324.049 24.2195ZM343.86 49.7905C344.603 48.6246 344.978 47.7487 345.047 47.5224L345.225 46.2827C345.271 45.9733 345.557 45.7584 345.866 45.8036C346.176 45.8481 346.389 46.1357 346.347 46.4458L346.169 47.6568L346.159 47.6552C346.037 48.4658 344.827 50.3777 344.814 50.3988C344.646 50.6627 344.297 50.7402 344.034 50.5724C343.978 50.5378 343.936 50.4957 343.896 50.4482C343.748 50.2643 343.728 50 343.86 49.7905ZM318.569 25.5679C318.47 25.271 318.634 24.951 318.93 24.8532C319.848 24.5507 320.782 24.2917 321.703 24.0831C322.006 24.0135 322.309 24.2066 322.378 24.5105C322.447 24.8153 322.256 25.1188 321.95 25.1873C321.065 25.3883 320.167 25.6378 319.282 25.9294C319.052 26.0052 318.809 25.9244 318.664 25.7452C318.625 25.6935 318.592 25.6341 318.569 25.5679ZM340.307 53.9685C340.985 53.3658 341.63 52.7044 342.225 52.0022C342.429 51.7643 342.784 51.7356 343.024 51.9383C343.261 52.1423 343.291 52.4985 343.087 52.7367C342.455 53.4788 341.774 54.1781 341.057 54.815C340.824 55.023 340.465 55.0015 340.258 54.7682L340.238 54.7452C340.054 54.5115 340.08 54.1695 340.307 53.9685ZM313.411 27.8683C313.266 27.5908 313.375 27.2488 313.651 27.1038C314.506 26.6547 315.381 26.2401 316.243 25.8704C316.529 25.7475 316.861 25.8813 316.983 26.1686C317.108 26.456 316.973 26.7894 316.687 26.9124C315.852 27.2699 315.006 27.6722 314.174 28.1079C313.931 28.2354 313.635 28.1675 313.47 27.9602C313.447 27.9319 313.427 27.9016 313.411 27.8683ZM335.456 57.7181C335.327 57.4341 335.449 57.0983 335.735 56.9678C336.561 56.5895 337.367 56.143 338.13 55.6405C338.39 55.4691 338.748 55.537 338.913 55.8033C339.084 56.0646 339.011 56.4155 338.752 56.5872C337.939 57.121 337.084 57.5956 336.206 57.9982C335.966 58.1083 335.686 58.0351 335.528 57.8371C335.502 57.8015 335.475 57.7616 335.456 57.7181ZM308.632 30.8887C308.454 30.633 308.513 30.2798 308.77 30.0998C309.559 29.5423 310.365 29.0121 311.158 28.5227C311.424 28.359 311.78 28.441 311.937 28.7086C312.099 28.9748 312.016 29.3238 311.75 29.4876C310.977 29.9644 310.191 30.4821 309.421 31.0261C309.174 31.1994 308.839 31.149 308.655 30.917L308.632 30.8887ZM329.999 59.1245C329.953 58.8151 330.163 58.5271 330.473 58.481C330.67 58.4516 330.867 58.421 331.065 58.3877C331.778 58.2698 332.486 58.1116 333.166 57.9165C333.466 57.8312 333.782 58.0051 333.864 58.306C333.949 58.6065 333.775 58.9199 333.476 59.0059C332.755 59.2125 332.005 59.3806 331.252 59.5051C331.045 59.5391 330.841 59.571 330.64 59.6014C330.433 59.632 330.236 59.547 330.114 59.3944C330.055 59.319 330.012 59.227 329.999 59.1245ZM324.361 59.3364C324.374 59.024 324.637 58.7818 324.95 58.7953C325.848 58.8349 326.779 58.8263 327.716 58.771C328.025 58.7525 328.295 58.9898 328.311 59.3025C328.331 59.6145 328.094 59.8824 327.782 59.9012C326.805 59.9592 325.838 59.9678 324.9 59.9269C324.733 59.9197 324.581 59.838 324.486 59.7147C324.404 59.6116 324.354 59.4791 324.361 59.3364ZM304.287 33.6422C304.928 33.08 305.579 32.5324 306.227 32.0144L306.481 31.8124C306.724 31.6189 307.079 31.6595 307.273 31.9033V31.905C307.467 32.1505 307.428 32.5067 307.181 32.7004L306.934 32.8991C306.3 33.4063 305.658 33.9434 305.03 34.4947C304.796 34.7006 304.438 34.6766 304.234 34.4413L304.217 34.4215C304.03 34.1866 304.056 33.8426 304.287 33.6422ZM317.108 53.1905C317.023 52.8896 317.197 52.5769 317.5 52.4919C318.371 52.2448 319 51.8497 319.414 51.588C319.592 51.4776 319.733 51.3896 319.845 51.3356C319.907 51.3066 319.96 51.2845 320.006 51.2687C320.299 51.1679 320.605 51.333 320.707 51.6292C320.805 51.9251 320.631 52.2546 320.338 52.3555C320.253 52.396 320.147 52.4645 320.016 52.5473C319.575 52.825 318.835 53.2903 317.806 53.582C317.582 53.6456 317.348 53.5632 317.21 53.3905C317.164 53.3332 317.131 53.2656 317.108 53.1905ZM318.799 58.3834C318.875 58.0796 319.177 57.8924 319.483 57.9653C320.286 58.159 321.174 58.3607 322.203 58.5212C322.512 58.5696 322.723 58.8596 322.677 59.168C322.628 59.4768 322.338 59.6887 322.029 59.6406C320.96 59.4738 320.046 59.2659 319.217 59.0669C319.092 59.0362 318.983 58.9647 318.907 58.8698C318.802 58.7383 318.756 58.5607 318.799 58.3834ZM316.332 55.5865C317.088 54.7999 317.74 54.1092 318.266 53.5329C318.477 53.3022 318.835 53.2857 319.065 53.4969C319.289 53.7095 319.312 54.066 319.102 54.297C318.569 54.8809 317.911 55.5792 317.144 56.373C316.927 56.5981 316.572 56.6043 316.345 56.3872L316.296 56.3328C316.121 56.114 316.131 55.7937 316.332 55.5865ZM300.168 37.5935C300.826 36.9035 301.504 36.224 302.181 35.5735C302.408 35.3574 302.764 35.3643 302.981 35.5903C303.201 35.8167 303.191 36.1746 302.964 36.3911C302.3 37.0307 301.632 37.6986 300.981 38.3774C300.767 38.6032 300.409 38.6107 300.185 38.3942L300.132 38.3382C299.958 38.1201 299.968 37.8008 300.168 37.5935ZM311.608 52.3001C311.724 52.0101 312.053 51.8688 312.342 51.9848C313.24 52.3446 314.108 52.5753 314.921 52.6708C315.23 52.7071 315.454 52.9891 315.418 53.2992C315.378 53.61 315.098 53.8321 314.789 53.7958C313.878 53.6887 312.914 53.433 311.924 53.0366C311.829 52.9987 311.753 52.9387 311.694 52.8649C311.569 52.7107 311.53 52.4965 311.608 52.3001ZM314.352 57.6094C314.516 57.4466 314.753 57.4025 314.954 57.4786C315.447 57.328 315.996 57.293 316.651 57.3646C316.96 57.3985 317.184 57.6776 317.151 57.9883C317.118 58.2991 316.839 58.5238 316.529 58.4899C315.737 58.4035 315.194 58.5096 314.707 58.8441L313.987 57.9768L314.352 57.6094ZM306.655 49.5911C306.786 49.3064 307.122 49.1805 307.405 49.3104C308.05 49.6036 308.668 49.945 309.244 50.324C309.47 50.4742 309.694 50.6153 309.911 50.7487C310.178 50.9109 310.263 51.2592 310.102 51.5264C309.941 51.794 309.592 51.8793 309.326 51.7172C309.096 51.5768 308.859 51.4275 308.622 51.27C308.096 50.923 307.527 50.6107 306.938 50.3408C306.852 50.3029 306.783 50.2469 306.731 50.1796C306.602 50.0182 306.566 49.7918 306.655 49.5911ZM296.382 41.8615C296.991 41.122 297.616 40.3918 298.234 39.6919C298.442 39.4583 298.8 39.4369 299.034 39.6448C299.267 39.8544 299.287 40.2106 299.08 40.4442C298.468 41.1336 297.856 41.8526 297.257 42.5808C297.057 42.8227 296.702 42.857 296.461 42.6583C296.429 42.6326 296.402 42.6046 296.379 42.5746C296.215 42.3696 296.211 42.0714 296.382 41.8615ZM301.149 48.4262C301.172 48.1145 301.445 47.8825 301.757 47.9079C302.757 47.9896 303.724 48.1429 304.632 48.362C304.938 48.4348 305.125 48.7409 305.05 49.0457C304.977 49.3496 304.671 49.5364 304.369 49.4629C303.517 49.2573 302.609 49.114 301.665 49.0369C301.504 49.0237 301.362 48.9436 301.27 48.8263C301.182 48.7172 301.135 48.5762 301.149 48.4262ZM295.511 48.7769C295.465 48.4678 295.679 48.1798 295.988 48.1346C296.961 47.9913 297.928 47.8984 298.859 47.8582C299.172 47.8443 299.435 48.0862 299.451 48.3992C299.465 48.7116 299.221 48.9759 298.909 48.9894C298.017 49.028 297.09 49.1173 296.152 49.255C295.945 49.2856 295.751 49.2 295.629 49.0481C295.567 48.9723 295.527 48.88 295.511 48.7769ZM292.922 46.3954C293.462 45.6299 294.031 44.8565 294.613 44.096C294.804 43.8479 295.156 43.8004 295.406 43.9905C295.652 44.1813 295.702 44.5356 295.511 44.7844C294.938 45.5334 294.379 46.2959 293.846 47.0495C293.665 47.3046 293.31 47.3652 293.057 47.1846C293.014 47.153 292.975 47.1167 292.942 47.0759C292.787 46.8838 292.774 46.606 292.922 46.3954ZM290.873 49.486C290.873 49.486 291.024 49.2286 291.324 48.765C291.491 48.5017 291.84 48.4249 292.103 48.5936C292.218 48.6684 292.297 48.7778 292.337 48.8991C292.58 48.8332 292.856 48.761 293.159 48.6872C293.462 48.6134 293.767 48.8006 293.84 49.1041C293.915 49.4079 293.728 49.7137 293.425 49.7878C292.57 49.9958 291.965 50.1819 291.676 50.2712C291.593 50.2966 291.534 50.3144 291.504 50.3223L290.159 50.6861L290.873 49.486Z" fill="#FA541C"/>
<path fill-rule="evenodd" clip-rule="evenodd" d="M283.273 49.056L279.563 49.9661C279.218 50.0514 278.869 49.8389 278.784 49.4913C278.698 49.1439 278.909 48.7933 279.257 48.7083L279.3 48.6978L282.915 47.7962L282.958 47.785C283.31 47.6977 283.665 47.9112 283.75 48.2621C283.839 48.6131 283.625 48.9686 283.273 49.056Z" fill="#FA541C"/>
<path fill-rule="evenodd" clip-rule="evenodd" d="M275.809 50.6171L272.019 51.0273C271.671 51.0645 271.358 50.8131 271.322 50.4648C271.286 50.1168 271.536 49.8044 271.885 49.7669L271.921 49.7626L275.628 49.3474L275.667 49.3431C276.019 49.3039 276.335 49.5573 276.374 49.9089C276.414 50.2605 276.161 50.5775 275.812 50.6167L275.809 50.6171Z" fill="#FA541C"/>
<path fill-rule="evenodd" clip-rule="evenodd" d="M268.213 51.2112L264.414 51.1829C264.072 51.1803 263.796 50.9008 263.799 50.5581C263.802 50.2157 264.082 49.9399 264.421 49.9426L264.454 49.9429L268.187 49.9567L268.223 49.9571C268.568 49.9584 268.848 50.2401 268.845 50.5864C268.845 50.9328 268.562 51.2125 268.217 51.2112H268.213Z" fill="#FA541C"/>
<path fill-rule="evenodd" clip-rule="evenodd" d="M260.618 50.9585L256.842 50.5594C256.507 50.5242 256.267 50.2256 256.303 49.8928C256.339 49.5597 256.635 49.3181 256.967 49.3534L256.994 49.3557L260.717 49.7356L260.747 49.7386C261.082 49.7729 261.326 50.0737 261.293 50.4108C261.257 50.7479 260.957 50.9931 260.622 50.9588L260.618 50.9585Z" fill="#FA541C"/>
<path fill-rule="evenodd" clip-rule="evenodd" d="M253.087 49.9998L249.357 49.2913C249.038 49.2303 248.827 48.9203 248.886 48.5987C248.949 48.277 249.258 48.0661 249.577 48.1271L249.597 48.1307L253.284 48.8175L253.307 48.8214C253.633 48.882 253.847 49.1951 253.787 49.5207C253.725 49.8462 253.412 50.0604 253.087 49.9998Z" fill="#FA541C"/>
<path fill-rule="evenodd" clip-rule="evenodd" d="M245.657 48.4475L241.993 47.482C241.684 47.4009 241.5 47.0843 241.582 46.7752C241.661 46.4661 241.977 46.2812 242.286 46.3623L245.934 47.3093L245.953 47.3143C246.266 47.3953 246.453 47.7146 246.371 48.028C246.292 48.3411 245.973 48.5292 245.661 48.4482L245.657 48.4475Z" fill="#FA541C"/>
<path fill-rule="evenodd" clip-rule="evenodd" d="M238.358 46.405L234.759 45.2246C234.463 45.1274 234.302 44.8084 234.398 44.5119C234.496 44.2153 234.815 44.0538 235.111 44.1507L235.125 44.155L238.697 45.3126L238.713 45.3172C239.012 45.4148 239.177 45.737 239.078 46.0376C238.983 46.3381 238.66 46.5029 238.361 46.4056L238.358 46.405Z" fill="#FA541C"/>
<path fill-rule="evenodd" clip-rule="evenodd" d="M231.195 43.9506L227.662 42.5887C227.379 42.4793 227.238 42.1606 227.346 41.8766C227.455 41.5925 227.774 41.4508 228.057 41.5602L228.067 41.5639L231.58 42.9034L231.593 42.908C231.879 43.0177 232.024 43.34 231.915 43.628C231.807 43.9163 231.484 44.0607 231.198 43.9509L231.195 43.9506Z" fill="#FA541C"/>
<path fill-rule="evenodd" clip-rule="evenodd" d="M224.162 41.1448L220.695 39.6287C220.422 39.5097 220.3 39.193 220.419 38.9215C220.537 38.6493 220.853 38.5251 221.122 38.6437L221.132 38.6474L224.583 40.1421L224.596 40.1467C224.869 40.2656 224.997 40.5859 224.879 40.8621C224.76 41.1379 224.438 41.2648 224.165 41.1458L224.162 41.1448Z" fill="#FA541C"/>
<path fill-rule="evenodd" clip-rule="evenodd" d="M217.26 38.0428L213.856 36.3929C213.596 36.267 213.487 35.954 213.612 35.6936C213.737 35.4336 214.05 35.3246 214.31 35.4505L214.316 35.4537L217.711 37.0826L217.721 37.0869C217.984 37.2134 218.096 37.5301 217.967 37.7943C217.842 38.0583 217.527 38.17 217.263 38.0435L217.26 38.0428Z" fill="#FA541C"/>
<path fill-rule="evenodd" clip-rule="evenodd" d="M210.481 34.685L207.136 32.9187C206.888 32.7872 206.792 32.4791 206.923 32.23C207.054 31.9812 207.362 31.8857 207.61 32.0168L207.616 32.0198L210.961 33.7702C211.213 33.9024 211.311 34.2144 211.179 34.4672C211.047 34.7199 210.736 34.8181 210.483 34.686L210.481 34.685Z" fill="#FA541C"/>
<path fill-rule="evenodd" clip-rule="evenodd" d="M203.819 31.0987L200.53 29.2286C200.292 29.0935 200.209 28.791 200.344 28.5528C200.479 28.3149 200.781 28.2312 201.018 28.3666L201.023 28.3689L204.306 30.2195L204.313 30.2231C204.554 30.3592 204.64 30.6657 204.504 30.9076C204.368 31.1494 204.062 31.2354 203.82 31.099L203.819 31.0987Z" fill="#FA541C"/>
<path fill-rule="evenodd" clip-rule="evenodd" d="M197.267 27.3128L194.03 25.3548C193.799 25.2154 193.725 24.9149 193.864 24.6839C194.004 24.4529 194.304 24.3781 194.534 24.5182L194.539 24.5211L197.767 26.4689L197.773 26.4722C198.005 26.6123 198.079 26.9138 197.94 27.1458C197.8 27.3778 197.499 27.4526 197.267 27.3128Z" fill="#FA541C"/>
<path fill-rule="evenodd" clip-rule="evenodd" d="M190.818 23.3543L187.633 21.3126C187.408 21.1683 187.342 20.8684 187.486 20.6427C187.63 20.417 187.93 20.3514 188.155 20.4957L188.16 20.4987L191.336 22.5305L191.342 22.5338C191.568 22.6785 191.634 22.9796 191.49 23.206C191.345 23.4327 191.044 23.499 190.818 23.3543Z" fill="#FA541C"/>
<path fill-rule="evenodd" clip-rule="evenodd" d="M184.473 19.2313L181.339 17.1128C181.119 16.9642 181.061 16.665 181.209 16.4446C181.358 16.2244 181.657 16.1664 181.876 16.3151L181.881 16.318L185.007 18.427L185.012 18.4303C185.233 18.5792 185.291 18.8794 185.143 19.1008C184.994 19.3219 184.694 19.3803 184.473 19.2313Z" fill="#FA541C"/>
<path fill-rule="evenodd" clip-rule="evenodd" d="M178.231 14.9573L175.149 12.7679C174.935 12.6153 174.884 12.3174 175.036 12.1023C175.189 11.8871 175.486 11.8363 175.701 11.9889L175.705 11.9919L178.78 14.1717L178.784 14.175C179 14.3279 179.051 14.6271 178.899 14.8429C178.746 15.0591 178.447 15.1102 178.231 14.9573Z" fill="#FA541C"/>
<path fill-rule="evenodd" clip-rule="evenodd" d="M172.054 10.6537L168.835 8.74149L168.809 8.726C168.584 8.59254 168.51 8.30223 168.644 8.07717C168.777 7.85211 169.066 7.77763 169.291 7.91109L172.563 9.85132C172.789 9.98478 172.863 10.2764 172.73 10.5025C172.597 10.7285 172.306 10.8033 172.08 10.6695L172.054 10.6537Z" fill="#FA541C"/>
<path fill-rule="evenodd" clip-rule="evenodd" d="M165.502 7.03815L162.04 5.53783C161.802 5.43469 161.693 5.15822 161.796 4.92031C161.898 4.68206 162.174 4.57233 162.412 4.67547L165.903 6.18403C166.142 6.2875 166.252 6.56463 166.149 6.80386C166.046 7.04309 165.769 7.15315 165.53 7.05001L165.502 7.03815Z" fill="#FA541C"/>
<path fill-rule="evenodd" clip-rule="evenodd" d="M158.545 4.28112L154.949 3.24049L154.92 3.23225C154.674 3.16107 154.531 2.90272 154.603 2.65525C154.674 2.40811 154.931 2.26543 155.178 2.33693L158.832 3.39009C159.079 3.4616 159.223 3.7206 159.151 3.96906C159.08 4.21752 158.821 4.36086 158.574 4.28936L158.545 4.28112Z" fill="#FA541C"/>
<path fill-rule="evenodd" clip-rule="evenodd" d="M151.295 2.43105L147.597 1.85471L147.568 1.85043C147.317 1.81089 147.144 1.57495 147.183 1.32253C147.222 1.07045 147.458 0.897449 147.71 0.936662L151.466 1.51827C151.719 1.55715 151.892 1.79441 151.853 2.04781C151.814 2.30122 151.577 2.47488 151.325 2.43533L151.295 2.43105Z" fill="#FA541C"/>
<path fill-rule="evenodd" clip-rule="evenodd" d="M143.87 1.51605L140.128 1.41324L140.099 1.41258C139.847 1.40533 139.648 1.19444 139.654 0.941365C139.661 0.688291 139.871 0.48893 140.124 0.49552L143.924 0.596354C144.177 0.602945 144.377 0.814498 144.371 1.06889C144.364 1.32295 144.153 1.5233 143.899 1.51671L143.87 1.51605Z" fill="#FA541C"/>
<path fill-rule="evenodd" clip-rule="evenodd" d="M136.386 1.54895L132.662 1.92164L132.633 1.92461C132.383 1.94965 132.161 1.76742 132.136 1.51731C132.111 1.26754 132.293 1.04478 132.542 1.01974L136.324 0.637489C136.574 0.611786 136.798 0.795001 136.823 1.04577C136.848 1.29686 136.666 1.52061 136.415 1.54565L136.386 1.54895Z" fill="#FA541C"/>
<path fill-rule="evenodd" clip-rule="evenodd" d="M125.322 3.37529L125.294 3.38155C125.051 3.43757 124.81 3.28632 124.754 3.04379C124.698 2.80093 124.848 2.55906 125.091 2.50304L128.793 1.64265C129.036 1.58598 129.279 1.73789 129.336 1.9814C129.392 2.22492 129.24 2.46844 128.997 2.52479L125.322 3.37529Z" fill="#FA541C"/>
<path fill-rule="evenodd" clip-rule="evenodd" d="M121.735 4.45054L118.198 5.76138C117.966 5.84706 117.709 5.72876 117.624 5.49744C117.538 5.26545 117.656 5.00842 117.887 4.92275L121.451 3.5984C121.682 3.51206 121.94 3.63069 122.027 3.863C122.113 4.09565 121.994 4.35399 121.762 4.44033L121.735 4.45054Z" fill="#FA541C"/>
<path fill-rule="evenodd" clip-rule="evenodd" d="M114.806 7.2746L111.51 9.04249L111.481 9.05798C111.266 9.17332 110.998 9.09225 110.882 8.87642C110.767 8.66058 110.848 8.39202 111.063 8.27668L114.415 6.47419C114.632 6.35754 114.901 6.43893 115.017 6.65576C115.133 6.87226 115.052 7.14214 114.836 7.25846L114.806 7.2746Z" fill="#FA541C"/>
<path fill-rule="evenodd" clip-rule="evenodd" d="M108.347 11.0393L105.319 13.2425L105.297 13.259C105.101 13.4016 104.826 13.3581 104.684 13.1618C104.541 12.965 104.585 12.6905 104.781 12.5475L107.852 10.3084C108.049 10.1651 108.324 10.2086 108.468 10.4056C108.611 10.603 108.567 10.8791 108.371 11.0228L108.347 11.0393Z" fill="#FA541C"/>
<path fill-rule="evenodd" clip-rule="evenodd" d="M102.428 15.6317L99.6867 18.1872L99.6683 18.2046C99.4923 18.3684 99.2167 18.3585 99.0532 18.1822C98.8894 18.0059 98.8993 17.7305 99.0749 17.5664L101.851 14.9737C102.028 14.8086 102.304 14.8185 102.469 14.9951C102.633 15.172 102.624 15.4492 102.447 15.6143L102.428 15.6317Z" fill="#FA541C"/>
<path fill-rule="evenodd" clip-rule="evenodd" d="M97.0977 20.8976L94.6649 23.7529L94.6488 23.7717C94.4942 23.9536 94.2218 23.975 94.0406 23.8198C93.8593 23.6649 93.8376 23.3924 93.9922 23.2112L96.4546 20.3157C96.6095 20.1328 96.8829 20.111 97.0654 20.2666C97.2473 20.4221 97.2694 20.6959 97.1141 20.8785L97.0977 20.8976Z" fill="#FA541C"/>
<path fill-rule="evenodd" clip-rule="evenodd" d="M90.3084 29.861L90.2943 29.8817C90.1624 30.0784 89.8969 30.1308 89.7009 29.9987C89.5045 29.8669 89.4522 29.6013 89.5838 29.4049L91.6971 26.2438C91.8294 26.0464 92.0961 25.9937 92.2931 26.1258C92.4902 26.2583 92.5428 26.5252 92.4109 26.7232L90.3084 29.861Z" fill="#FA541C"/>
<path fill-rule="evenodd" clip-rule="evenodd" d="M88.4103 33.0968L86.717 36.4438L86.7045 36.4681C86.5989 36.6771 86.344 36.7608 86.1351 36.6546C85.9262 36.5485 85.8427 36.2938 85.9486 36.0846L87.663 32.6875C87.7689 32.4773 88.0252 32.3929 88.2347 32.4994C88.4449 32.6055 88.5287 32.8622 88.4228 33.0724L88.4103 33.0968Z" fill="#FA541C"/>
<path fill-rule="evenodd" clip-rule="evenodd" d="M85.2459 39.8947L84.018 43.4361L84.0082 43.4648C83.9319 43.6846 83.6927 43.8006 83.4737 43.7241C83.2543 43.6483 83.1381 43.4087 83.2144 43.1893L84.4585 39.5896C84.5348 39.3688 84.7752 39.2522 84.9953 39.3283C85.2157 39.4047 85.3321 39.6456 85.2558 39.8661L85.2459 39.8947Z" fill="#FA541C"/>
<path fill-rule="evenodd" clip-rule="evenodd" d="M83.0561 47.0579L82.3828 50.7413L82.3766 50.7752C82.3351 51.0016 82.1184 51.1515 81.8924 51.11C81.6661 51.0685 81.5164 50.8517 81.5579 50.6253L82.2397 46.874C82.2812 46.6463 82.4989 46.4954 82.7259 46.5369C82.9532 46.5784 83.1038 46.7966 83.0624 47.0243L83.0561 47.0579Z" fill="#FA541C"/>
<path fill-rule="evenodd" clip-rule="evenodd" d="M82.0205 54.4651L81.9971 58.2042L81.9968 58.2428C81.9955 58.4712 81.81 58.6547 81.582 58.6537C81.3544 58.6521 81.1708 58.4665 81.1725 58.2382L81.1922 54.4223C81.1935 54.193 81.3797 54.0081 81.6087 54.0094C81.8376 54.0107 82.0221 54.1972 82.0208 54.4263L82.0205 54.4651Z" fill="#FA541C"/>
<path fill-rule="evenodd" clip-rule="evenodd" d="M82.3303 61.928L83.0293 65.5979L83.0372 65.6384C83.0793 65.8605 82.9342 66.0747 82.7125 66.1172C82.4908 66.1597 82.277 66.0144 82.2346 65.7923L81.5165 62.0417C81.4738 61.819 81.6195 61.6034 81.8419 61.5606C82.0649 61.5178 82.2797 61.6637 82.3224 61.8868L82.3303 61.928Z" fill="#FA541C"/>
<path fill-rule="evenodd" clip-rule="evenodd" d="M85.5258 72.6299L85.5413 72.6678C85.6268 72.8748 85.5288 73.112 85.3222 73.1977C85.1157 73.2834 84.8792 73.1858 84.7936 72.9786L83.3312 69.4513C83.2447 69.2437 83.3431 69.0052 83.5506 68.9188C83.7582 68.8325 83.996 68.931 84.0822 69.1386L85.5258 72.6299Z" fill="#FA541C"/>
<path fill-rule="evenodd" clip-rule="evenodd" d="M87.34 75.8682C88.0314 76.8917 88.8143 77.8516 89.6882 78.7195C89.8458 78.8757 89.8468 79.1304 89.6909 79.2883C89.5346 79.4461 89.2807 79.4474 89.1231 79.2912C88.2087 78.3847 87.3913 77.3843 86.6716 76.3213C86.5466 76.1367 86.5947 75.8856 86.7792 75.7601C86.9634 75.6349 87.2147 75.6836 87.34 75.8682Z" fill="#FA541C"/>
<path fill-rule="evenodd" clip-rule="evenodd" d="M92.5709 81.0165C93.6106 81.6703 94.7254 82.2028 95.8871 82.5995C96.095 82.6704 96.2062 82.8968 96.1351 83.1054C96.0644 83.3136 95.8388 83.425 95.6306 83.3542C94.4102 82.9386 93.2386 82.3804 92.1466 81.6953C91.9591 81.578 91.9025 81.3309 92.0196 81.1434C92.1367 80.9559 92.3837 80.8989 92.5709 81.0165Z" fill="#FA541C"/>
<path fill-rule="evenodd" clip-rule="evenodd" d="M99.4792 83.3797C100.701 83.5056 101.938 83.496 103.162 83.3619C103.378 83.3382 103.573 83.4947 103.597 83.7112C103.62 83.9281 103.464 84.1228 103.248 84.1469C101.972 84.2879 100.679 84.2994 99.3989 84.1693C99.1812 84.1469 99.0227 83.9521 99.045 83.7343C99.0671 83.5165 99.2615 83.3576 99.4792 83.3797Z" fill="#FA541C"/>
<path fill-rule="evenodd" clip-rule="evenodd" d="M106.772 82.6C107.949 82.2309 109.092 81.7514 110.185 81.1758C110.376 81.0753 110.612 81.1491 110.713 81.3402C110.813 81.531 110.74 81.7673 110.549 81.8678C109.416 82.4658 108.23 82.9648 107.007 83.3496C106.8 83.4146 106.58 83.2995 106.515 83.0926C106.45 82.8857 106.566 82.6652 106.772 82.6Z" fill="#FA541C"/>
<path fill-rule="evenodd" clip-rule="evenodd" d="M113.302 79.175C114.28 78.4204 115.196 77.5827 116.036 76.6752C116.182 76.5187 116.426 76.5095 116.583 76.6551C116.739 76.8004 116.749 77.0456 116.603 77.2021C115.735 78.1416 114.788 79.0092 113.776 79.7918C113.606 79.9227 113.362 79.8913 113.231 79.7213C113.1 79.551 113.132 79.3061 113.302 79.175Z" fill="#FA541C"/>
<path fill-rule="evenodd" clip-rule="evenodd" d="M118.325 73.7571L119.265 72.153C119.598 71.6294 119.846 71.057 120.124 70.5018L120.135 70.4794C120.229 70.2902 120.459 70.2138 120.648 70.3083C120.837 70.4032 120.914 70.6333 120.819 70.8221C120.534 71.3941 120.28 71.981 119.938 72.5244L118.967 74.1822C118.86 74.3654 118.625 74.427 118.441 74.3193C118.259 74.2119 118.197 73.9762 118.304 73.7927L118.325 73.7571Z" fill="#FA541C"/>
<path fill-rule="evenodd" clip-rule="evenodd" d="M121.419 67.0152C121.757 65.8227 121.996 64.6024 122.121 63.3707C122.143 63.1621 122.329 63.0102 122.537 63.0316C122.745 63.0524 122.897 63.2385 122.876 63.4471C122.747 64.7257 122.5 65.9904 122.151 67.2238C122.094 67.4264 121.883 67.5444 121.681 67.4868C121.478 67.4294 121.361 67.2182 121.419 67.0152Z" fill="#FA541C"/>
<path fill-rule="evenodd" clip-rule="evenodd" d="M122.147 59.6743C122.037 58.4435 121.806 57.2243 121.461 56.0377C121.403 55.8383 121.517 55.6297 121.716 55.5717C121.915 55.5134 122.123 55.6274 122.181 55.8268C122.541 57.0592 122.782 58.3269 122.898 59.6064C122.917 59.814 122.764 59.9979 122.556 60.0167C122.349 60.0354 122.166 59.8819 122.147 59.6743Z" fill="#FA541C"/>
<path fill-rule="evenodd" clip-rule="evenodd" d="M120.095 52.595C119.535 51.4918 118.876 50.4386 118.136 49.4458C118.013 49.281 118.047 49.0477 118.211 48.9251C118.375 48.8019 118.608 48.8355 118.731 48.9999C119.496 50.0247 120.179 51.1132 120.76 52.2559C120.854 52.4398 120.781 52.6652 120.597 52.7588C120.413 52.8527 120.188 52.7792 120.095 52.595Z" fill="#FA541C"/>
<path fill-rule="evenodd" clip-rule="evenodd" d="M115.687 46.6497C114.801 45.781 113.851 44.977 112.852 44.2392C112.688 44.1183 112.654 43.8876 112.774 43.7238C112.895 43.5601 113.125 43.5251 113.288 43.6457C114.314 44.402 115.291 45.2271 116.204 46.1201C116.349 46.2631 116.352 46.4974 116.21 46.6437C116.067 46.79 115.833 46.7927 115.687 46.6497Z" fill="#FA541C"/>
<path fill-rule="evenodd" clip-rule="evenodd" d="M109.723 42.2264C108.637 41.6211 107.515 41.0813 106.365 40.6072C106.179 40.5307 106.091 40.3175 106.167 40.1313C106.243 39.9451 106.456 39.8558 106.642 39.9326C107.818 40.416 108.966 40.967 110.079 41.5862C110.255 41.6844 110.319 41.9078 110.221 42.0844C110.122 42.2614 109.899 42.325 109.723 42.2264Z" fill="#FA541C"/>
<path fill-rule="evenodd" clip-rule="evenodd" d="M102.841 39.3796C101.647 39.0316 100.413 38.8062 99.2014 38.5129L99.1724 38.506C98.9744 38.4579 98.8524 38.2579 98.9004 38.0595C98.9481 37.8608 99.1478 37.7385 99.3461 37.7867H99.3474C100.578 38.0885 101.817 38.3307 103.04 38.682C103.233 38.7363 103.345 38.9367 103.291 39.1295C103.236 39.3222 103.036 39.4346 102.844 39.3806L102.841 39.3796Z" fill="#FA541C"/>
<path fill-rule="evenodd" clip-rule="evenodd" d="M95.5031 37.9095L91.773 37.5496L91.7484 37.5473C91.5339 37.5266 91.3767 37.3355 91.3974 37.1203C91.4181 36.9054 91.6089 36.7479 91.8233 36.7683L91.8257 36.7687L95.6024 37.1542C95.8113 37.1756 95.9632 37.3625 95.9419 37.5717C95.9208 37.78 95.7356 37.9319 95.5277 37.9118L95.5031 37.9095Z" fill="#FA541C"/>
<path fill-rule="evenodd" clip-rule="evenodd" d="M88.026 37.4214L84.2781 37.5137L84.2548 37.5143C84.0278 37.5199 83.839 37.34 83.8334 37.1123C83.8278 36.885 84.0074 36.6958 84.2347 36.6902H84.237L88.0319 36.6177C88.2533 36.6138 88.4361 36.7901 88.4404 37.0118C88.4444 37.2329 88.2697 37.4155 88.0493 37.4208L88.026 37.4214Z" fill="#FA541C"/>
<path fill-rule="evenodd" clip-rule="evenodd" d="M80.5447 37.8172L76.8298 38.3243L76.8067 38.3273C76.5702 38.3596 76.3522 38.1938 76.3199 37.9566C76.2877 37.7197 76.4535 37.5015 76.69 37.4692L76.6923 37.4689L80.4555 36.9766C80.6864 36.9463 80.8983 37.1094 80.9285 37.3407C80.9585 37.5714 80.797 37.7826 80.5674 37.8139L80.5447 37.8172Z" fill="#FA541C"/>
<path fill-rule="evenodd" clip-rule="evenodd" d="M73.1467 39.0261L69.5071 39.9254L69.4841 39.9314C69.241 39.9913 68.9953 39.8427 68.9355 39.5992C68.8756 39.3557 69.0239 39.1095 69.267 39.0499L69.2693 39.0492L72.9599 38.1592C73.1977 38.1015 73.4368 38.2481 73.494 38.4864C73.5509 38.7236 73.4059 38.9622 73.1697 39.0205L73.1467 39.0261Z" fill="#FA541C"/>
<path fill-rule="evenodd" clip-rule="evenodd" d="M65.9195 41.0178L62.398 42.3007L62.3736 42.3096C62.1276 42.3992 61.8555 42.2723 61.7661 42.0255C61.6766 41.779 61.8036 41.5065 62.0496 41.4169L62.0523 41.4162L65.6287 40.1357C65.8698 40.049 66.1349 40.1749 66.2211 40.4168C66.3069 40.6573 66.1826 40.9219 65.9431 41.0093L65.9195 41.0178Z" fill="#FA541C"/>
<path fill-rule="evenodd" clip-rule="evenodd" d="M58.9559 43.777L55.6047 45.4484L55.5784 45.4615C55.3337 45.5838 55.0364 45.4839 54.9146 45.2388C54.7929 44.9936 54.8926 44.696 55.137 44.5738L55.1396 44.5728L58.5519 42.8946C58.7921 42.7763 59.0825 42.8758 59.2003 43.1163C59.3177 43.3559 59.2197 43.6455 58.9815 43.7645L58.9559 43.777Z" fill="#FA541C"/>
<path fill-rule="evenodd" clip-rule="evenodd" d="M52.3638 47.3176L49.2459 49.3844L49.2209 49.4012C48.9831 49.5587 48.6633 49.4935 48.5061 49.2552C48.3489 49.0173 48.414 48.697 48.6515 48.5395L48.6538 48.5379L51.8342 46.4549C52.0677 46.3017 52.3809 46.3676 52.5335 46.6016C52.6858 46.8345 52.621 47.1469 52.3894 47.3005L52.3638 47.3176Z" fill="#FA541C"/>
<path fill-rule="evenodd" clip-rule="evenodd" d="M46.2449 51.6261L43.3559 54.0158L43.3368 54.0319C43.1082 54.2208 42.7697 54.1885 42.5813 53.9595C42.3925 53.7304 42.4247 53.3914 42.6533 53.2025L42.6556 53.2006L45.5965 50.7951C45.8219 50.6112 46.1531 50.6445 46.337 50.8702C46.5202 51.0949 46.4876 51.4254 46.2646 51.6096L46.2449 51.6261Z" fill="#FA541C"/>
<path fill-rule="evenodd" clip-rule="evenodd" d="M37.8794 59.1795C37.6594 59.3957 37.3064 59.392 37.0906 59.1716C36.8752 58.9511 36.8785 58.5976 37.0985 58.3817L37.1008 58.3794L39.8233 55.7353C40.0404 55.5244 40.3868 55.53 40.5973 55.7472C40.8068 55.9637 40.8022 56.3094 40.5874 56.5202L37.8794 59.1795Z" fill="#FA541C"/>
<path fill-rule="evenodd" clip-rule="evenodd" d="M35.3161 61.8923L32.8291 64.7084L32.8166 64.7222C32.6051 64.9618 32.24 64.9842 32.0009 64.7723C31.7621 64.5604 31.7397 64.1946 31.9512 63.9554L31.9532 63.9531L34.48 61.1218C34.6889 60.8876 35.0477 60.8675 35.2816 61.0767C35.5148 61.2856 35.5355 61.6435 35.3286 61.8778L35.3161 61.8923Z" fill="#FA541C"/>
<path fill-rule="evenodd" clip-rule="evenodd" d="M30.4322 67.6037L28.1228 70.5694L28.1122 70.5832C27.9096 70.8436 27.534 70.89 27.2738 70.6867C27.0136 70.4834 26.9673 70.1074 27.1702 69.8467L27.1722 69.8441L29.5184 66.8635C29.7191 66.6082 30.0888 66.5643 30.3434 66.7657C30.5973 66.9664 30.6417 67.3348 30.443 67.5898L30.4322 67.6037Z" fill="#FA541C"/>
<path fill-rule="evenodd" clip-rule="evenodd" d="M25.8986 73.6L23.7566 76.6903L23.7471 76.7038C23.5527 76.9842 23.1681 77.0538 22.8882 76.859C22.6083 76.6643 22.5389 76.2791 22.7333 75.9986L22.7353 75.996L24.9121 72.8899C25.1049 72.6151 25.4838 72.5485 25.7581 72.7416C26.0318 72.9344 26.0982 73.3117 25.9081 73.5865L25.8986 73.6Z" fill="#FA541C"/>
<path fill-rule="evenodd" clip-rule="evenodd" d="M21.6933 79.8383L19.7128 83.036L19.7046 83.0495C19.5191 83.3487 19.1263 83.441 18.8277 83.2551C18.5287 83.0696 18.4369 82.6762 18.6221 82.3766L18.6237 82.3737L20.6378 79.1598C20.822 78.8659 21.2091 78.7769 21.5022 78.9618C21.7946 79.1453 21.8838 79.5312 21.7019 79.8248L21.6933 79.8383Z" fill="#FA541C"/>
<path fill-rule="evenodd" clip-rule="evenodd" d="M17.813 86.2788L15.9937 89.5717L15.9858 89.5859C15.8101 89.9039 15.4105 90.0185 15.0934 89.8429C14.776 89.6669 14.6612 89.2666 14.8368 88.9486L14.8385 88.9456L16.6907 85.6342C16.8657 85.3222 17.2594 85.2111 17.5712 85.3861C17.8817 85.5604 17.9929 85.9532 17.8209 86.2646L17.813 86.2788Z" fill="#FA541C"/>
<path fill-rule="evenodd" clip-rule="evenodd" d="M12.6017 96.2893L12.5942 96.3045C12.43 96.6409 12.0248 96.7797 11.6893 96.6146C11.3541 96.4501 11.2153 96.0442 11.3798 95.7084L11.3814 95.7048L13.0678 92.3047C13.2316 91.9742 13.6316 91.8394 13.9612 92.0035C14.2898 92.167 14.4243 92.5654 14.2631 92.8949L12.6017 96.2893Z" fill="#FA541C"/>
<path fill-rule="evenodd" clip-rule="evenodd" d="M11.0353 99.7071L9.55836 103.166L9.5508 103.184C9.39982 103.538 8.99064 103.702 8.63737 103.55C8.28377 103.399 8.11997 102.989 8.27095 102.635L8.27259 102.632L9.78204 99.1466C9.93302 98.7983 10.3369 98.6385 10.6846 98.7897C11.031 98.9403 11.1905 99.343 11.0425 99.6903L11.0353 99.7071Z" fill="#FA541C"/>
<path fill-rule="evenodd" clip-rule="evenodd" d="M8.17617 106.666L6.89632 110.201L6.88875 110.221C6.75389 110.593 6.3434 110.785 5.97204 110.65C5.60035 110.515 5.40859 110.104 5.54312 109.732L5.54443 109.728L6.8575 106.161C6.99236 105.795 7.39793 105.607 7.7637 105.742C8.12815 105.877 8.31564 106.281 8.18308 106.646L8.17617 106.666Z" fill="#FA541C"/>
<path fill-rule="evenodd" clip-rule="evenodd" d="M5.7288 113.769L4.6792 117.374L4.67196 117.399C4.55815 117.789 4.14995 118.014 3.76018 117.9C3.3704 117.786 3.1464 117.377 3.26021 116.986L3.26087 116.983L4.34369 113.334C4.45816 112.95 4.86208 112.731 5.24593 112.845C5.6288 112.959 5.84721 113.361 5.73571 113.745L5.7288 113.769Z" fill="#FA541C"/>
<path fill-rule="evenodd" clip-rule="evenodd" d="M3.76136 121.013L2.99627 124.68L2.99101 124.706C2.90548 125.114 2.50617 125.376 2.09862 125.291C1.69075 125.205 1.42859 124.809 1.51379 124.4C1.76739 123.155 2.04534 121.915 2.30979 120.673C2.39564 120.27 2.79167 120.013 3.19395 120.098C3.59656 120.185 3.85313 120.581 3.76728 120.985L3.76136 121.013Z" fill="#FA541C"/>
<path fill-rule="evenodd" clip-rule="evenodd" d="M2.38606 128.374L1.94299 132.127C1.89464 132.537 1.52362 132.831 1.1141 132.782C0.704587 132.733 0.41184 132.363 0.460192 131.953L0.899969 128.164C0.947664 127.751 1.32034 127.456 1.73182 127.503C2.14364 127.552 2.43836 127.925 2.39067 128.337L2.39033 128.338L2.38606 128.374Z" fill="#FA541C"/>
<path fill-rule="evenodd" clip-rule="evenodd" d="M1.68923 135.828L1.6264 139.608C1.61949 140.017 1.28333 140.343 0.875139 140.336C0.466944 140.329 0.141638 139.994 0.148545 139.585L0.204793 135.765C0.210714 135.355 0.54819 135.026 0.958359 135.032C1.36853 135.038 1.69613 135.376 1.69021 135.788V135.789L1.68923 135.828Z" fill="#FA541C"/>
<path fill-rule="evenodd" clip-rule="evenodd" d="M1.76561 143.306L2.10968 147.028L2.11362 147.069C2.15079 147.472 1.85476 147.829 1.45248 147.866C1.0502 147.903 0.693966 147.608 0.656797 147.205L0.297935 143.402C0.259451 142.997 0.556146 142.637 0.960399 142.599C1.36465 142.561 1.72351 142.858 1.76167 143.263L1.762 143.264L1.76561 143.306Z" fill="#FA541C"/>
<path fill-rule="evenodd" clip-rule="evenodd" d="M2.66223 150.723L3.42632 154.38L3.43488 154.42C3.51678 154.813 3.26581 155.197 2.87438 155.279C2.48296 155.361 2.09976 155.111 2.01786 154.719L1.22942 150.982C1.14653 150.588 1.39783 150.201 1.79123 150.118C2.1843 150.035 2.57045 150.287 2.65367 150.681L2.654 150.682L2.66223 150.723Z" fill="#FA541C"/>
<path fill-rule="evenodd" clip-rule="evenodd" d="M4.40047 157.984L5.59053 161.569C5.71519 161.946 5.51191 162.352 5.13661 162.477C4.76097 162.602 4.35574 162.4 4.23107 162.024L3.02095 158.401C2.89497 158.023 3.09825 157.614 3.47553 157.488C3.85281 157.362 4.261 157.565 4.38731 157.943L4.40047 157.984Z" fill="#FA541C"/>
<path fill-rule="evenodd" clip-rule="evenodd" d="M6.95314 165.008L8.53232 168.439C8.69613 168.796 8.54088 169.218 8.1853 169.382C7.82973 169.546 7.4087 169.392 7.2449 169.035L5.64269 165.572C5.47691 165.214 5.63249 164.79 5.98971 164.624C6.34692 164.458 6.77059 164.614 6.93637 164.971L6.93669 164.973L6.95314 165.008Z" fill="#FA541C"/>
<path fill-rule="evenodd" clip-rule="evenodd" d="M10.2549 171.714L12.1808 174.963C12.3785 175.297 12.2689 175.728 11.9357 175.927C11.6025 176.125 11.1726 176.016 10.9749 175.682L9.02441 172.407C8.82475 172.072 8.93428 171.638 9.2688 171.438C9.60331 171.238 10.0365 171.347 10.2362 171.683L10.2368 171.684L10.2549 171.714Z" fill="#FA541C"/>
<path fill-rule="evenodd" clip-rule="evenodd" d="M14.2262 178.057L16.4313 181.084L16.4494 181.109C16.6754 181.42 16.6077 181.855 16.2978 182.081C15.9883 182.307 15.5544 182.241 15.3284 181.93L13.0805 178.857C12.8529 178.546 12.9204 178.108 13.2312 177.88C13.542 177.652 13.9789 177.719 14.2068 178.031L14.2078 178.032L14.2262 178.057Z" fill="#FA541C"/>
<path fill-rule="evenodd" clip-rule="evenodd" d="M18.766 184.017L21.2202 186.85L21.2379 186.87C21.4866 187.157 21.4557 187.592 21.1692 187.841C20.8827 188.09 20.4498 188.06 20.2012 187.773L17.7056 184.903C17.4549 184.615 17.4849 184.178 17.7727 183.927C18.0602 183.676 18.4967 183.707 18.747 183.994L18.7479 183.996L18.766 184.017Z" fill="#FA541C"/>
<path fill-rule="evenodd" clip-rule="evenodd" d="M23.783 189.588L26.4407 192.232L26.4571 192.248C26.7236 192.513 26.7249 192.944 26.4608 193.211C26.1963 193.477 25.767 193.48 25.5006 193.215L22.8041 190.543C22.5357 190.277 22.5334 189.844 22.7988 189.576C23.0639 189.306 23.4964 189.304 23.7649 189.57L23.7659 189.571L23.783 189.588Z" fill="#FA541C"/>
<path fill-rule="evenodd" clip-rule="evenodd" d="M29.1889 194.787L32.0161 197.256L32.0315 197.269C32.3111 197.514 32.3404 197.939 32.0963 198.219C31.8526 198.499 31.4292 198.53 31.1493 198.285L28.2863 195.795C28.0044 195.55 27.9742 195.122 28.2189 194.84C28.4636 194.558 28.8902 194.528 29.1721 194.773L29.1731 194.774L29.1889 194.787Z" fill="#FA541C"/>
<path fill-rule="evenodd" clip-rule="evenodd" d="M34.9164 199.638L37.882 201.945L37.8958 201.955C38.1859 202.18 38.2385 202.599 38.0135 202.89C37.7886 203.18 37.3721 203.233 37.082 203.008L34.0839 200.686C33.7918 200.46 33.7378 200.04 33.9638 199.747C34.1895 199.454 34.6092 199.4 34.9012 199.627L34.9022 199.627L34.9164 199.638Z" fill="#FA541C"/>
<path fill-rule="evenodd" clip-rule="evenodd" d="M40.9067 204.177L43.9855 206.334L43.998 206.343C44.2953 206.551 44.368 206.961 44.1598 207.259C43.9519 207.557 43.5434 207.631 43.2457 207.422L40.1373 205.254C39.838 205.045 39.764 204.632 39.9729 204.332C40.1814 204.032 40.5932 203.958 40.8929 204.167L40.8939 204.168L40.9067 204.177Z" fill="#FA541C"/>
<path fill-rule="evenodd" clip-rule="evenodd" d="M47.1137 208.431L50.2613 210.515C50.5613 210.712 50.6451 211.116 50.4484 211.416C50.2517 211.717 49.8481 211.8 49.5478 211.603L46.3917 209.523C46.0904 209.324 46.0069 208.918 46.2052 208.616C46.4036 208.314 46.8088 208.23 47.1101 208.429L47.1137 208.431Z" fill="#FA541C"/>
<path fill-rule="evenodd" clip-rule="evenodd" d="M53.4157 212.589L56.5737 214.657C56.8711 214.851 56.955 215.25 56.7612 215.547C56.5675 215.845 56.1701 215.929 55.8731 215.735L52.7092 213.673C52.4102 213.478 52.3253 213.077 52.52 212.778C52.7148 212.478 53.1147 212.394 53.4137 212.588L53.4157 212.589Z" fill="#FA541C"/>
<path fill-rule="evenodd" clip-rule="evenodd" d="M59.7348 216.724L62.8921 218.793C63.1859 218.985 63.2681 219.379 63.0763 219.673C62.8842 219.967 62.4912 220.049 62.1978 219.857L59.0378 217.796C58.7417 217.604 58.6575 217.207 58.8496 216.911C59.0417 216.614 59.4371 216.53 59.7331 216.723L59.7348 216.724Z" fill="#FA541C"/>
<path fill-rule="evenodd" clip-rule="evenodd" d="M66.0457 220.869L69.1912 222.956C69.48 223.148 69.559 223.538 69.3679 223.827C69.1764 224.117 68.786 224.195 68.4969 224.004L65.352 221.925C65.0602 221.734 64.9783 221.342 65.1691 221.05C65.3595 220.758 65.751 220.676 66.0427 220.867L66.0457 220.869Z" fill="#FA541C"/>
<path fill-rule="evenodd" clip-rule="evenodd" d="M72.324 225.059L75.4452 227.183C75.7284 227.376 75.8021 227.762 75.6096 228.046C75.4175 228.329 75.032 228.403 74.7488 228.21L74.7459 228.208L71.6277 226.096L71.6244 226.093C71.3389 225.9 71.2642 225.512 71.4569 225.226C71.65 224.94 72.0375 224.865 72.323 225.059L72.324 225.059Z" fill="#FA541C"/>
<path fill-rule="evenodd" clip-rule="evenodd" d="M78.5565 229.334L81.6454 231.514C81.9217 231.709 81.9878 232.092 81.7931 232.368C81.5984 232.646 81.2165 232.712 80.9399 232.517L80.9359 232.514L77.8526 230.347L77.8476 230.344C77.5694 230.148 77.5019 229.763 77.6973 229.484C77.8927 229.205 78.2769 229.137 78.5555 229.333L78.5565 229.334Z" fill="#FA541C"/>
<path fill-rule="evenodd" clip-rule="evenodd" d="M84.7062 233.726L87.7438 235.974C88.0125 236.173 88.0691 236.552 87.8704 236.821C87.6721 237.091 87.2935 237.148 87.0248 236.949L87.0192 236.945L83.9901 234.712L83.9839 234.707C83.7132 234.508 83.6549 234.126 83.8543 233.854C84.0536 233.583 84.4345 233.525 84.7052 233.725L84.7062 233.726Z" fill="#FA541C"/>
<path fill-rule="evenodd" clip-rule="evenodd" d="M90.755 238.262L93.7317 240.597C93.9912 240.801 94.037 241.178 93.8334 241.438C93.6301 241.698 93.2545 241.743 92.9949 241.54L92.9883 241.535L90.0215 239.216L90.0146 239.21C89.7527 239.006 89.706 238.627 89.9103 238.365C90.1142 238.103 90.4921 238.056 90.754 238.261L90.755 238.262Z" fill="#FA541C"/>
<path fill-rule="evenodd" clip-rule="evenodd" d="M96.6737 242.97L99.5903 245.372C99.8419 245.58 99.8784 245.952 99.6715 246.204C99.4646 246.456 99.0929 246.493 98.841 246.286L98.8364 246.282L95.9257 243.894L95.9204 243.89C95.6668 243.682 95.6293 243.307 95.8372 243.053C96.0448 242.799 96.4191 242.761 96.6727 242.969L96.6737 242.97Z" fill="#FA541C"/>
<path fill-rule="evenodd" clip-rule="evenodd" d="M102.481 247.818L105.332 250.308C105.574 250.519 105.599 250.888 105.388 251.131C105.177 251.374 104.809 251.399 104.566 251.188L104.559 251.182L101.719 248.711L101.711 248.704C101.467 248.492 101.44 248.121 101.653 247.876C101.865 247.631 102.235 247.605 102.48 247.817L102.481 247.818Z" fill="#FA541C"/>
<path fill-rule="evenodd" clip-rule="evenodd" d="M108.137 252.847L110.891 255.447C111.123 255.666 111.133 256.03 110.915 256.262C110.698 256.493 110.334 256.504 110.103 256.286L110.094 256.278L107.353 253.7L107.344 253.691C107.111 253.472 107.099 253.105 107.318 252.872C107.537 252.638 107.903 252.627 108.136 252.846L108.137 252.847Z" fill="#FA541C"/>
<path fill-rule="evenodd" clip-rule="evenodd" d="M113.586 258.116L116.21 260.853C116.427 261.079 116.42 261.439 116.194 261.656C115.968 261.874 115.608 261.867 115.391 261.64L115.381 261.629L112.773 258.921L112.762 258.909C112.543 258.682 112.55 258.319 112.777 258.1C113.004 257.881 113.366 257.887 113.585 258.115L113.586 258.116Z" fill="#FA541C"/>
<path fill-rule="evenodd" clip-rule="evenodd" d="M118.752 263.666L121.205 266.562C121.405 266.798 121.376 267.153 121.14 267.353C120.904 267.553 120.551 267.524 120.351 267.288L120.339 267.274L117.905 264.412L117.893 264.398C117.691 264.16 117.719 263.804 117.956 263.601C118.193 263.399 118.549 263.428 118.751 263.665L118.752 263.666Z" fill="#FA541C"/>
<path fill-rule="evenodd" clip-rule="evenodd" d="M123.556 269.544L125.787 272.618C125.966 272.866 125.912 273.212 125.665 273.392C125.418 273.571 125.073 273.517 124.893 273.269L124.88 273.252L122.67 270.218L122.656 270.2C122.475 269.951 122.53 269.602 122.778 269.421C123.026 269.24 123.374 269.294 123.555 269.542L123.556 269.544Z" fill="#FA541C"/>
<path fill-rule="evenodd" clip-rule="evenodd" d="M127.885 275.79L129.834 279.056C129.988 279.314 129.904 279.65 129.646 279.804C129.388 279.959 129.053 279.875 128.898 279.616L128.885 279.594L126.957 276.378L126.944 276.356C126.787 276.096 126.871 275.758 127.131 275.602C127.391 275.445 127.728 275.53 127.885 275.79Z" fill="#FA541C"/>
<path fill-rule="evenodd" clip-rule="evenodd" d="M131.616 282.414L133.21 285.869C133.333 286.135 133.217 286.452 132.951 286.575C132.685 286.698 132.371 286.583 132.247 286.318L132.234 286.291L130.647 282.898L130.634 282.871C130.507 282.6 130.624 282.277 130.895 282.15C131.165 282.023 131.487 282.14 131.614 282.411L131.616 282.414Z" fill="#FA541C"/>
<path fill-rule="evenodd" clip-rule="evenodd" d="M134.607 289.413L135.787 293.032C135.875 293.301 135.729 293.59 135.46 293.677C135.194 293.764 134.907 293.619 134.818 293.353L134.808 293.323L133.628 289.77L133.618 289.739C133.527 289.466 133.674 289.171 133.947 289.08C134.22 288.989 134.515 289.137 134.606 289.41L134.607 289.413Z" fill="#FA541C"/>
<path fill-rule="evenodd" clip-rule="evenodd" d="M136.738 296.719L137.456 300.458C137.507 300.725 137.333 300.982 137.068 301.035C136.803 301.084 136.548 300.913 136.495 300.646L136.489 300.616L135.763 296.942L135.757 296.911C135.704 296.639 135.88 296.376 136.151 296.322C136.421 296.268 136.684 296.445 136.738 296.716L136.738 296.719Z" fill="#FA541C"/>
<path fill-rule="evenodd" clip-rule="evenodd" d="M137.935 304.236L138.168 308.038C138.184 308.299 137.988 308.523 137.73 308.536C137.472 308.552 137.25 308.358 137.233 308.101L137.231 308.071L136.979 304.298C136.961 304.035 137.161 303.804 137.425 303.787C137.689 303.771 137.917 303.969 137.935 304.236Z" fill="#FA541C"/>
<path fill-rule="evenodd" clip-rule="evenodd" d="M138.139 311.854L137.863 315.644C137.845 315.891 137.63 316.075 137.384 316.059C137.138 316.042 136.953 315.828 136.969 315.581L136.971 315.558L137.223 311.815L137.225 311.792C137.242 311.538 137.46 311.347 137.713 311.363C137.965 311.38 138.156 311.6 138.139 311.851L138.139 311.854Z" fill="#FA541C"/>
<path fill-rule="evenodd" clip-rule="evenodd" d="M137.41 319.414L136.792 323.161C136.754 323.395 136.534 323.553 136.302 323.513C136.07 323.474 135.912 323.256 135.949 323.025L135.952 323.006L136.543 319.292L136.546 319.272C136.584 319.035 136.808 318.87 137.047 318.91C137.285 318.949 137.448 319.173 137.41 319.411L137.41 319.414Z" fill="#FA541C"/>
<path fill-rule="evenodd" clip-rule="evenodd" d="M136.008 326.877L135.045 330.555C134.988 330.772 134.766 330.901 134.549 330.845C134.333 330.789 134.203 330.568 134.259 330.351L134.264 330.328L135.196 326.69L135.202 326.67C135.259 326.446 135.486 326.311 135.709 326.367C135.932 326.426 136.065 326.653 136.008 326.877Z" fill="#FA541C"/>
<path fill-rule="evenodd" clip-rule="evenodd" d="M133.873 334.173L132.444 337.706C132.364 337.9 132.14 337.996 131.943 337.916C131.746 337.837 131.651 337.613 131.73 337.416L133.128 333.906L133.139 333.877C133.22 333.672 133.45 333.573 133.653 333.656C133.856 333.738 133.955 333.969 133.874 334.17L133.873 334.173Z" fill="#FA541C"/>
<path fill-rule="evenodd" clip-rule="evenodd" d="M130.692 341.097C130.044 342.194 129.327 343.256 128.517 344.251C128.39 344.406 128.16 344.429 128.004 344.303C127.848 344.175 127.825 343.948 127.951 343.789C128.727 342.827 129.419 341.793 130.046 340.718C130.15 340.537 130.379 340.478 130.558 340.583C130.738 340.685 130.798 340.916 130.694 341.097H130.692Z" fill="#FA541C"/>
<path fill-rule="evenodd" clip-rule="evenodd" d="M125.787 346.965C124.773 347.763 123.643 348.428 122.425 348.883C122.247 348.949 122.049 348.857 121.983 348.679C121.917 348.501 122.007 348.303 122.184 348.237C123.325 347.805 124.388 347.173 125.349 346.408C125.502 346.286 125.725 346.313 125.846 346.464C125.968 346.619 125.942 346.843 125.789 346.965H125.787Z" fill="#FA541C"/>
</g>
</g>
<defs>
<clipPath id="clip0_966_41098">
<rect width="640" height="481.103" fill="white" transform="translate(0 0.447754)"/>
</clipPath>
</defs>
</svg>
